<svg width="1700" height="1700" viewBox="0 0 1700 1700" fill="none" xmlns="http://www.w3.org/2000/svg">
<g clip-path="url(#clip0)">
<rect width="1700" height="1700" fill="white"/>
<mask id="mask0" mask-type="alpha" maskUnits="userSpaceOnUse" x="-130" y="91" width="1874" height="1683">
<path d="M93.5138 873.093C203.095 1388.42 691.599 1532.32 922.153 1539.85C1104.49 1567 1397.41 1499.85 1521.96 1214.52C1631.29 944.018 1616.89 752.636 1461.34 608.85C1352.98 523.104 835.682 418.421 618.749 395.878C327.014 365.561 42.2526 429.614 93.5138 873.093Z" fill="#0047F0"/>
</mask>
<g mask="url(#mask0)">
<path d="M718.254 760.667C718.254 760.667 706.328 755.731 674.519 761.559C642.71 767.387 613.973 778.928 582.357 823.195C550.74 867.461 510.381 975.845 520.105 1046.76C520.105 1046.76 509.844 1065.49 524.863 1077.13C524.863 1077.13 505.653 1165.97 519.66 1206.91C519.66 1206.91 523.443 1268.38 535.184 1293.24C535.184 1293.24 553.938 1343.05 545.658 1371.9C537.378 1400.76 548.138 1406.51 554.072 1407.59C560.007 1408.66 626.436 1539.68 626.436 1539.68C626.436 1539.68 697.864 1546.39 713.535 1561.01C729.206 1575.63 782.352 1566.38 850.511 1575.23C886.102 1579.85 1021.51 1581.48 1119.25 1541.9C1126.13 1539.12 1133.43 1537.83 1140.83 1538.3C1183.91 1541.01 1337.02 1545.88 1341.74 1478.53C1347.23 1400.14 1465.25 1061.96 1465.25 1061.96C1465.25 1061.96 1480.66 1024.55 1463.12 957.7C1457.35 935.708 1461.93 899.069 1461.78 891.901C1461.64 884.733 1469.07 814.667 1451.05 800.693C1433.03 786.72 1354.08 739.164 1304.13 757.678C1254.19 776.192 718.254 760.667 718.254 760.667Z" fill="#0047F0"/>
</g>
<path opacity="0.5" d="M1304.84 1215.7C1304.84 1215.7 1301.66 1102.91 1369.98 1057.77L1379 1135.12C1379 1135.12 1316.77 1212.75 1304.84 1215.7Z" fill="#0A38A6"/>
<path opacity="0.5" d="M1091.85 1169.41L1108.24 1153.49C1108.24 1153.49 1301.06 1183.81 1304.19 1189.39C1307.32 1194.97 1297.79 1204.93 1297.79 1204.93L1091.85 1169.41Z" fill="#0A38A6"/>
<path opacity="0.5" d="M759.347 916.632L771.114 893.105C799.935 882.534 872.926 862.212 934.32 865.485L942.506 1009.72C944.894 1013.98 948.952 1024.24 946.087 1031.2C947.622 1064.79 947.009 1116 940.46 1125.82C922.553 1130.08 890.628 1138.51 877.531 1136.05C872.585 1147.3 859.581 1184.78 834 1194.5C831.271 1197.91 828.313 1211.03 825.857 1222.49C822.788 1236.81 795.523 1398.32 794.5 1406.5C793.477 1414.68 820.5 1502 796.542 1525C746.934 1515.86 729.383 1512.68 719.065 1510.54C712.62 1560.85 695.963 1504.99 708 1508C711.644 1508.91 714.711 1509.63 719.065 1510.54C719.194 1509.53 719.32 1508.47 719.441 1507.37C725.58 1451.62 759.347 1161.11 787.998 1153.95C816.648 1146.79 843.764 1082.35 833.02 1046.03C824.425 1016.98 780.323 947.661 759.347 916.632Z" fill="#0A38A6"/>
<path d="M752.378 871.468C748.01 872.701 745.248 876.901 745.797 881.406C749.235 909.646 761.427 1006.37 768.601 1019.09C795.313 1066.49 752.574 1141.39 923.062 1108.15C933.912 1106.04 917.608 905.712 913.985 862.756C913.589 858.063 909.835 854.554 905.125 854.464C881.845 854.018 812.95 854.376 752.378 871.468Z" fill="#202020"/>
<path d="M1328.77 1178.61C1328.77 1178.61 1325.59 1065.81 1393.91 1020.68L1402.93 1098.02C1402.93 1098.02 1340.7 1175.65 1328.77 1178.61Z" fill="#F4F4F4"/>
<path d="M1108.6 1159.47L1124.99 1143.91C1124.99 1143.91 1317.81 1173.53 1320.94 1178.98C1324.07 1184.43 1314.54 1194.16 1314.54 1194.16L1108.6 1159.47Z" fill="#E6E6E6"/>
<path d="M1337.53 1184.41C1337.53 1184.41 1325.46 1186.08 1327.87 1179.4C1330.27 1172.73 1430.76 1048.03 1489.44 1047C1502.92 1062.74 1347.42 1179.2 1337.53 1184.41Z" fill="#E6E6E6"/>
<path d="M1317.17 1197.07C1317.17 1197.07 1311.63 1174.95 1342.43 1179.14C1373.23 1183.33 1325.59 1201.48 1317.17 1197.07Z" fill="#BCBCBC"/>
<path d="M954.42 179.963C954.42 179.963 966.9 157.321 980.94 161.097C994.979 164.874 995.369 166.845 995.369 166.845C995.369 166.845 1003.49 154.124 1017.6 164.46C1031.7 174.795 981.72 311.144 954.42 313.529C927.121 315.915 954.42 179.963 954.42 179.963Z" fill="#0F0F0F"/>
<path d="M723.635 761.587C723.635 761.587 969.439 767.571 980.444 688.498L1130.7 634.835L1134.2 645.05C1134.2 645.05 1127.03 748.232 1331.49 754.229C1332.53 754.26 1332.97 755.641 1332.04 756.097C1310.6 766.599 1198.84 820.532 1163.54 821.137C1113.78 821.989 952.049 830.859 723.635 761.587Z" fill="#F2A983"/>
<path d="M1131.33 686.909C1102.22 731.511 1009.62 717.869 979.377 688.002C1029.78 672.736 1130.38 649.388 1125.87 659.343C1121.36 669.299 1127.06 679.939 1131.33 686.909Z" fill="#E99C74"/>
<path d="M859.274 462.994C859.274 462.994 878.935 592.596 921.237 641.293C963.539 689.989 1009.4 708.085 1051.7 700.898C1094 693.711 1141.8 639.729 1142.28 633.989C1142.76 628.249 1172.67 592.031 1175.64 583.213C1178.62 574.395 1200.67 517.497 1210.8 503.722C1220.93 489.946 1203.65 404.299 1194.71 397.112C1185.77 389.925 1169.69 310.866 1128.51 300.617C1087.33 290.369 1024.91 279.688 1007.03 285.112C989.159 290.535 898.001 323.443 876.486 341.411C854.971 359.379 825.843 366.566 831.801 392.986C837.759 419.405 859.274 462.994 859.274 462.994Z" fill="#F7AF8A"/>
<path d="M835.295 323.563C835.295 323.563 805.288 379.866 819.091 425.987C832.895 472.108 858.701 463.723 858.701 463.723C858.701 463.723 847.899 386.455 876.706 366.09C905.513 345.725 956.526 327.822 961.328 310.386C961.328 310.386 967.329 291.668 962.378 293.465C962.378 293.465 965.379 267.11 955.176 265.762C955.176 265.762 972.43 254.382 967.029 244.649C961.628 234.915 957.026 223.235 961.478 212.005C965.929 200.774 968.229 194.185 969.43 191.041C969.792 189.82 969.894 188.537 969.729 187.275C969.564 186.012 969.135 184.799 968.47 183.712C967.806 182.625 966.92 181.69 965.871 180.966C964.821 180.242 963.631 179.746 962.378 179.51C955.326 177.847 969.43 179.81 967.629 176.366C965.829 172.922 941.222 171.125 922.468 180.409C903.713 189.693 887.709 191.639 878.056 206.614C868.404 221.588 877.606 223.684 878.506 228.476C879.407 233.268 871.838 238.21 862.452 244.05C853.067 249.89 828.694 273.05 827.894 304.196C827.093 335.343 834.995 315.344 835.295 323.563Z" fill="#141313"/>
<path d="M992.843 185.699C992.843 185.699 1019.11 153.431 1063.28 161.797C1063.28 161.797 1136.7 159.407 1167.74 195.259C1173.7 199.144 1186.54 205.119 1194.9 225.734C1194.9 225.734 1207.73 254.715 1211.91 280.409C1211.91 280.409 1235.48 341.957 1214 386.772C1213.25 388.886 1213 391.142 1213.26 393.369C1213.51 395.596 1214.28 397.734 1215.49 399.62C1219.67 405.595 1242.35 424.418 1236.08 466.843C1229.81 509.269 1217.84 521.22 1209.82 525.403C1209.82 525.403 1228.92 542.134 1195.49 575.297C1195.49 575.297 1204.15 569.322 1209.32 576.094C1209.32 576.094 1197.71 578.484 1195.19 589.373C1195.19 589.373 1201.96 589.572 1201.96 593.157C1201.96 593.157 1214.89 583.198 1220.2 587.779C1225.5 592.361 1227.89 606.967 1227.89 606.967C1227.89 606.967 1255.35 602.984 1261.72 630.471C1268.08 657.958 1247.59 680.864 1247.59 680.864C1247.59 680.864 1242.42 693.412 1238.63 696.798C1238.63 696.798 1239.03 688.034 1236.65 688.499C1236.65 688.499 1233.86 720.766 1221.92 726.343C1221.92 726.343 1231.67 706.226 1224.71 694.275C1224.71 694.275 1222.92 707.023 1211.44 704.433C1211.44 704.433 1198.91 724.75 1184.18 720.169C1169.46 715.588 1119.78 696.698 1125.21 654.107C1125.41 652.613 1126.04 651.211 1127.03 650.073C1133.03 643.052 1155.8 612.644 1163.36 587.248C1167.69 572.691 1171.37 543.345 1171.37 534.133C1171.37 534.133 1183.26 533.818 1186.04 526.647C1188.83 519.477 1202.75 513.103 1203.95 483.624C1205.14 454.145 1201.16 428.252 1190.82 427.853C1180.47 427.455 1157.39 411.521 1157.39 411.521C1157.39 411.521 1115.21 403.553 1121.97 347.783C1121.97 347.783 1116.4 330.255 1103.73 328.661C1103.73 328.661 1091.4 319.466 1079.46 318.486C1079.46 318.486 993.108 342.604 968.038 308.743C963.18 302.967 969.232 277.671 974.803 271.695C980.374 265.72 965.269 250.582 966.264 238.233C967.259 225.884 972.813 219.51 972.813 219.51C972.813 219.51 969.232 210.364 980.706 204.023C980.706 204.023 975.135 188.089 992.843 185.699Z" fill="#141313"/>
<path d="M997.324 193.916C993.982 194.792 990.828 196.337 988.033 198.469C986.65 199.52 985.336 200.67 984.1 201.911C982.884 203.163 981.737 204.489 980.665 205.881L979.377 204.679C980.6 203.337 981.896 202.072 983.258 200.891C984.622 199.71 986.062 198.633 987.569 197.668C990.563 195.764 993.875 194.491 997.324 193.916V193.916Z" fill="black"/>
<path d="M1035.61 173.576C1039.52 170.406 1043.79 167.69 1048.32 165.483C1050.64 164.394 1053.04 163.492 1055.5 162.786C1057.99 162.083 1060.55 161.688 1063.13 161.611V163.198C1060.67 163.15 1058.22 163.395 1055.82 163.928C1053.41 164.515 1051.05 165.284 1048.76 166.229C1044.1 168.171 1039.69 170.636 1035.61 173.576V173.576Z" fill="black"/>
<path d="M1188.76 607.893C1191.81 606.391 1194.63 604.433 1197.13 602.081C1198.36 600.946 1199.41 599.62 1200.23 598.15C1201.03 596.753 1201.46 595.159 1201.46 593.535H1203.12C1202.99 595.434 1202.36 597.261 1201.29 598.817C1200.3 600.313 1199.08 601.634 1197.68 602.731C1194.97 604.895 1191.96 606.634 1188.76 607.893V607.893Z" fill="black"/>
<path d="M1222.26 627.039C1223.65 623.83 1224.79 620.517 1225.67 617.129C1226.11 615.453 1226.42 613.744 1226.59 612.018C1226.81 610.368 1226.75 608.691 1226.4 607.063L1228.11 606.699C1228.35 608.535 1228.27 610.398 1227.89 612.209C1227.57 613.974 1227.11 615.712 1226.52 617.406C1225.35 620.724 1223.92 623.944 1222.26 627.039V627.039Z" fill="black"/>
<path d="M1218.67 656.949C1221.54 658.481 1224.09 660.496 1226.22 662.899C1228.38 665.291 1230.2 667.941 1231.66 670.782C1233.11 673.647 1234.24 676.652 1235.04 679.748C1235.48 681.272 1235.7 682.862 1236.04 684.419C1236.38 685.976 1236.42 687.582 1236.62 689.172L1234.93 689.254C1234.81 687.713 1234.72 686.156 1234.57 684.616C1234.42 683.075 1234.16 681.534 1233.81 680.01C1233.17 676.961 1232.2 673.984 1230.93 671.127C1229.62 668.278 1227.94 665.601 1225.94 663.161C1223.92 660.687 1221.46 658.583 1218.67 656.949V656.949Z" fill="black"/>
<path d="M1240.21 656.949C1241.51 657.287 1242.65 657.958 1243.49 658.869C1244.35 659.758 1245.06 660.737 1245.62 661.782C1246.67 663.905 1247.4 666.129 1247.8 668.403C1248.21 670.662 1248.45 672.939 1248.53 675.223C1248.65 677.523 1248.53 679.791 1248.53 682.075L1246.57 681.959C1246.78 679.725 1247.06 677.474 1247.1 675.239C1247.18 672.997 1247.1 670.753 1246.86 668.519C1246.64 666.262 1246.08 664.037 1245.19 661.898C1244.73 660.854 1244.11 659.869 1243.33 658.969C1242.57 658.035 1241.47 657.328 1240.21 656.949V656.949Z" fill="black"/>
<path d="M1197.13 675.344C1200.2 674.747 1203.37 674.747 1206.44 675.344C1209.55 675.916 1212.51 677.109 1215.11 678.845C1217.69 680.628 1219.91 682.845 1221.66 685.387C1222.13 685.998 1222.54 686.65 1222.89 687.334L1224.04 689.329C1224.67 690.703 1225.25 692.126 1225.85 693.533L1224.23 694.04C1223.71 692.666 1223.22 691.276 1222.67 689.918L1221.66 687.955C1221.36 687.284 1221 686.643 1220.57 686.042C1219 683.536 1216.98 681.319 1214.6 679.499C1212.16 677.699 1209.35 676.412 1206.35 675.72C1203.34 675.015 1200.2 674.888 1197.13 675.344V675.344Z" fill="black"/>
<path d="M1149.28 643.618C1152.87 641.811 1156.91 641.082 1160.91 641.521C1164.93 641.978 1168.72 643.663 1171.76 646.348C1174.75 649.057 1177.26 652.26 1179.18 655.819C1181.11 659.331 1182.92 662.894 1184.73 666.472C1188.34 673.597 1191.84 680.804 1195.78 687.729C1197.73 691.178 1199.95 694.468 1202.42 697.567C1204.72 700.665 1207.87 703.021 1211.49 704.341L1211.06 706.006C1207.14 704.542 1203.74 701.94 1201.29 698.532C1198.81 695.337 1196.59 691.947 1194.65 688.395C1190.79 681.337 1187.42 674.08 1183.93 666.889C1180.44 659.698 1177.4 652.091 1171.44 646.714C1168.5 644 1164.8 642.256 1160.84 641.72C1156.88 641.23 1152.87 641.889 1149.28 643.618Z" fill="black"/>
<path d="M1256.96 635.414C1258.29 637.694 1259.46 640.072 1260.46 642.529C1261.43 644.996 1262.32 647.51 1263.06 650.073C1266.07 660.364 1267.14 671.18 1266.2 681.905C1266.05 684.579 1265.58 687.221 1265.19 689.863C1265.01 691.185 1264.64 692.458 1264.36 693.763C1264.07 695.068 1263.74 696.357 1263.42 697.631C1264.26 692.401 1264.81 687.124 1265.05 681.826C1265.28 676.553 1265.14 671.27 1264.61 666.021C1264.11 660.768 1263.22 655.564 1261.96 650.455C1260.72 645.293 1259.05 640.259 1256.96 635.414V635.414Z" fill="black"/>
<path d="M547.451 1019.48C545.662 1020.68 544.048 1022.13 542.657 1023.8C541.965 1024.61 541.349 1025.48 540.819 1026.41C540.29 1027.31 538.215 1028.05 537.879 1029.05V1028.49C538.372 1027.44 539.181 1026.65 539.869 1025.73C540.542 1024.83 541.29 1024 542.105 1023.25C543.706 1021.74 545.506 1020.47 547.451 1019.48Z" fill="#0A38A6"/>
<path d="M540.271 1059.4C540.744 1058.45 541.307 1057.56 541.951 1056.73C542.591 1055.9 543.33 1055.17 544.151 1054.54C544.969 1053.91 545.899 1053.44 546.888 1053.17C547.859 1052.92 548.872 1052.92 549.843 1053.17C548.884 1053.05 547.912 1053.17 547.005 1053.51C546.139 1053.89 545.352 1054.45 544.688 1055.14C544.043 1055.83 543.479 1056.6 543.009 1057.42C542.525 1058.24 541.88 1059.26 541.56 1060.16L540.271 1059.4Z" fill="#0A38A6"/>
<path d="M717.798 1141.52L604.874 1353.84C604.874 1353.84 549.297 1471.29 656.886 1496.71C754.439 1526.45 762.287 1412.3 762.287 1412.3C762.287 1412.3 804.551 1185.11 806.942 1173.07C809.333 1161.02 781.767 1152.88 717.798 1141.52Z" fill="#F2A983"/>
<path d="M778.659 1008.71C778.659 1008.71 740.592 1016.16 727.434 1050.45C714.277 1084.74 714.962 1144.75 723.933 1160.39C732.904 1176.03 787.225 1230.48 842.689 1138.05C858.742 1111.3 870.605 1067.74 778.659 1008.71Z" fill="#F2A983"/>
<path d="M724.529 1064.95C724.529 1064.95 724.505 1015.62 727.434 1009.02C730.363 1002.42 746.531 960.863 755.318 957.264L762.195 999.547C762.195 999.547 759.136 1019.01 765.774 1034.01C772.413 1049.01 724.529 1064.95 724.529 1064.95Z" fill="#F2A983"/>
<path d="M776.32 1009.73C776.32 1009.73 825.525 990.751 843.837 970.514C862.149 950.277 877.035 922.898 881.185 921.708C885.335 920.517 901.934 921.113 893.042 947.301C885.302 970.068 864.141 1003.18 829.922 1028.31C824.676 1032.18 819.229 1035.75 813.602 1039.03C769.799 1064.56 776.32 1009.73 776.32 1009.73Z" fill="#F2A983"/>
<path d="M829.995 1028.13C829.995 1028.13 828.336 1039.01 835.884 1039.01C843.431 1039.01 882.063 1018.22 888.798 1013.02C896.179 1007.28 911.489 994.908 912.684 987.035C913.878 979.162 928.06 985.105 925.141 1001.49C922.222 1017.87 901.918 1035.98 901.918 1035.98C901.918 1035.98 857.132 1068.33 841.872 1069.69C826.611 1071.05 789.92 1039.01 829.995 1028.13Z" fill="#F2A983"/>
<path d="M838.875 1062.52C838.875 1062.52 852.494 1068.33 862.236 1064.81C871.978 1061.29 888.264 1054.17 891.639 1050.95C899.722 1044.72 906.402 1036.16 910.018 1034.38C910.551 1034.12 911.164 1034.11 911.719 1034.32C915.75 1035.86 922.448 1043.78 908.532 1061.68C889.138 1082.12 849.825 1096.76 838.085 1091.39C826.345 1086.03 829.203 1064.37 838.875 1062.52Z" fill="#F2A983"/>
<path d="M855.587 1092.16C855.587 1092.16 890.069 1083.89 897.102 1077.58C904.135 1071.27 907.985 1068.38 908.359 1071.34C908.733 1074.31 916.852 1082.31 894.834 1095.93C872.816 1109.55 846.159 1118.29 834.592 1112.52C823.025 1106.75 849.259 1078.8 855.587 1092.16Z" fill="#F2A983"/>
<path d="M799.75 1215.14C799.75 1215.14 800.469 1184.44 822.869 1159.55C828.79 1139.83 783.914 1151.62 799.75 1215.14Z" fill="#F2A983"/>
<path d="M1096.63 1158.27C1096.63 1158.27 1108.63 1270 1112.63 1289.01C1116.63 1308.03 1143.83 1452.25 1141.43 1464.92C1141.43 1464.92 1298.23 1495.83 1369.43 1480.77C1369.43 1480.77 1335.03 1201.06 1335.83 1189.97L1096.63 1158.27Z" fill="#5585F7"/>
<path d="M1507.02 1031.44C1507.02 1031.44 1356.72 1150.08 1333.53 1189.1L1366.98 1481.32C1366.98 1481.32 1483.04 1384.97 1487.01 1370.64C1490.99 1356.31 1495.23 1064.09 1507.02 1031.44Z" fill="#4C79E2"/>
<path d="M1422.28 1201.07C1422.28 1201.07 1446.12 1191.59 1463.96 1194.84C1481.79 1198.09 1496.25 1200.44 1496.25 1206.03C1496.25 1211.62 1496.88 1221.24 1484.2 1224.07C1467.33 1226.78 1457.21 1224.07 1457.21 1224.07C1457.21 1224.07 1427.37 1222.99 1422.28 1221.36C1417.19 1219.74 1408.57 1208.9 1422.28 1201.07Z" fill="#3464D4"/>
<path d="M1426.8 1233.64C1426.8 1233.64 1449.78 1223.8 1466.96 1227.17C1484.14 1230.54 1495.06 1232.04 1495.06 1237.84C1493.7 1251 1497.78 1255.58 1486.46 1257.53C1470.2 1260.33 1460.46 1257.53 1460.46 1257.53C1460.46 1257.53 1431.69 1256.4 1426.8 1254.72C1421.91 1253.05 1413.58 1241.86 1426.8 1233.64Z" fill="#3464D4"/>
<path d="M1430.89 1266.04C1430.89 1266.04 1451.58 1257.7 1467.06 1260.57C1482.55 1263.43 1493.8 1265.21 1493.8 1270.14C1493.8 1275.06 1495.19 1284.63 1484.64 1286.4C1469.99 1288.85 1461.2 1286.4 1461.2 1286.4C1461.2 1286.4 1435.28 1285.44 1430.87 1284.01C1426.46 1282.59 1418.97 1272.93 1430.89 1266.04Z" fill="#3464D4"/>
<path d="M1440.36 1300.63C1440.36 1300.63 1455.92 1289.45 1469.07 1288.99C1482.23 1288.54 1492.83 1287.97 1493.65 1292.25C1494.47 1296.54 1493 1309.32 1487.7 1308.05C1476.09 1312.9 1468.52 1312.5 1468.52 1312.5C1468.52 1312.5 1447.16 1316.59 1443.31 1316.17C1439.46 1315.76 1431.72 1308.95 1440.36 1300.63Z" fill="#3464D4"/>
<path d="M1158.49 412.473C1158.49 412.473 1144.32 422.721 1175.34 446.37C1175.34 446.37 1175.72 428.584 1190.65 428.633C1205.59 428.682 1176.1 399.86 1158.49 412.473Z" fill="#141313"/>
<path d="M1413.95 1190.3C1413.95 1190.3 1441.78 1180.83 1462.6 1184.07C1483.42 1187.32 1500.3 1189.67 1500.3 1195.26C1500.3 1200.85 1505.92 1210.6 1486.23 1213.3C1466.54 1216.01 1454.72 1213.3 1454.72 1213.3C1454.72 1213.3 1419.89 1212.22 1413.95 1210.6C1408.01 1208.97 1397.94 1198.13 1413.95 1190.3Z" fill="#F2A983"/>
<path d="M1417.32 1223.54C1417.32 1223.54 1444.46 1214.43 1464.76 1217.55C1485.05 1220.67 1501.51 1222.94 1501.51 1228.31C1501.51 1233.68 1507 1243.06 1487.79 1245.66C1468.58 1248.25 1457.08 1245.66 1457.08 1245.66C1457.08 1245.66 1423.1 1244.61 1417.32 1243.06C1411.54 1241.5 1401.7 1231.14 1417.32 1223.54Z" fill="#F2A983"/>
<path d="M1424.73 1254.61C1424.73 1254.61 1448.73 1245.55 1466.69 1248.66C1484.64 1251.77 1499.2 1254.01 1499.2 1259.36C1499.2 1264.72 1504.05 1274.06 1487.07 1276.73C1470.09 1279.4 1459.89 1276.73 1459.89 1276.73C1459.89 1276.73 1429.83 1275.69 1424.72 1274.14C1419.6 1272.6 1410.91 1262.1 1424.73 1254.61Z" fill="#F2A983"/>
<path d="M1434.92 1291.06C1434.92 1291.06 1452.62 1279.89 1467.58 1279.43C1482.54 1278.97 1494.6 1278.4 1495.53 1282.69C1496.46 1286.97 1501.95 1293.63 1488.76 1298.48C1475.56 1303.33 1466.95 1302.93 1466.95 1302.93C1466.95 1302.93 1442.65 1307.02 1438.27 1306.6C1433.89 1306.19 1425.09 1299.38 1434.92 1291.06Z" fill="#F2A983"/>
<path d="M980.574 191.524C980.574 191.524 985.146 158.124 1017.45 166.57C1049.75 175.017 980.574 191.524 980.574 191.524Z" fill="#141313"/>
<path d="M564.269 1391.54C575.917 1367.12 594.337 1337.26 615.519 1336.54C615.519 1336.54 553.247 1425.93 688.73 1485.02C688.73 1485.02 761.802 1474.89 761.802 1413.52C761.802 1413.52 765.367 1410.57 770.137 1421.16C772.533 1437.24 826.446 1543.3 707.238 1571.31C599.645 1596.58 554.518 1551.45 551.14 1455.71C550.302 1433.59 554.804 1411.59 564.269 1391.54Z" fill="#5585F7"/>
<rect x="167.553" y="396.834" width="56.5776" height="178.597" rx="6.34955" fill="#E2E2E8"/>
<rect x="240.879" y="442.473" width="56.5776" height="132.956" rx="6.34955" fill="#E2E2E8"/>
<rect x="314.203" y="283.721" width="56.5776" height="291.709" rx="6.34955" fill="#0047F0"/>
<rect x="387.531" y="335.316" width="56.5776" height="240.114" rx="6.34955" fill="#E2E2E8"/>
<rect x="167.555" y="705.334" width="276.07" height="80.8572" rx="5.77552" fill="#E2E2E8"/>
<rect x="191.812" y="723.812" width="43.7773" height="44.377" rx="1.85943" fill="#0047F0"/>
<rect x="248.732" y="746.006" width="170.731" height="13.3131" rx="1.85943" fill="#0047F0"/>
<rect x="248.732" y="728.254" width="17.5109" height="13.3131" rx="1.85943" fill="#0047F0"/>
<rect x="167.555" y="795.432" width="276.07" height="80.8572" rx="5.77552" fill="#E2E2E8"/>
<rect x="191.812" y="813.912" width="43.7773" height="44.377" rx="1.85943" fill="#0047F0"/>
<rect x="248.732" y="836.092" width="170.731" height="13.3131" rx="1.85943" fill="#0047F0"/>
<rect x="248.732" y="818.348" width="17.5109" height="13.3131" rx="1.85943" fill="#0047F0"/>
<rect x="167.555" y="885.529" width="276.07" height="80.8572" rx="5.77552" fill="#E2E2E8"/>
<rect x="191.812" y="904.01" width="43.7773" height="44.377" rx="1.85943" fill="#0047F0"/>
<rect x="248.732" y="926.207" width="170.731" height="13.3131" rx="1.85943" fill="#0047F0"/>
<rect x="248.732" y="908.455" width="17.5109" height="13.3131" rx="1.85943" fill="#0047F0"/>
<path d="M471.713 449.855C782.235 460.73 795.119 623.241 795.119 840.008" stroke="#202020" stroke-width="3.76667" stroke-linecap="round" stroke-linejoin="round" stroke-dasharray="3.77 9.42"/>
<path d="M339.409 999.615C600.393 1146.42 486.101 681.971 762.299 843.749" stroke="#202020" stroke-width="3.76667" stroke-linecap="round" stroke-linejoin="round" stroke-dasharray="3.77 9.42"/>
</g>
<defs>
<clipPath id="clip0">
<rect width="1700" height="1700" fill="white"/>
</clipPath>
</defs>
</svg>
