<svg xmlns="http://www.w3.org/2000/svg" width="202" height="194" viewBox="0 0 293.879 281.119">
  <g id="Layer_2" data-name="Layer 2" transform="translate(0.013 0)" opacity="0.744">
    <g id="Ñëîé_1" data-name="Ñëîé 1" transform="translate(-0.013 0)">
      <path id="Path_18" data-name="Path 18" d="M189.911,298.709,90.329,241.216a3.358,3.358,0,0,1,0-5.815l94.684-54.681,105.943,61.166a3.358,3.358,0,0,1,0,5.815l-88.33,50.985a12.715,12.715,0,0,1-12.715.023Z" transform="translate(-20.365 -41.536)" fill="#173d7a" opacity="0.5"/>
      <path id="Path_19" data-name="Path 19" d="M184.82,138.883c0-6.323-4.444-8.9-9.927-5.745l-93.128,53.68A6.03,6.03,0,0,0,79,191.539c0,1.741,1.217,2.449,2.726,1.54l93.136-53.657c2.465-1.425,4.475-.262,4.475,2.588v10.413c1.8-.108,3.62-.116,5.453-.077Z" transform="translate(-18.147 -30.29)" fill="#ad71f0"/>
      <path id="Path_20" data-name="Path 20" d="M81.719,217.99l93.136-33.941c5.476-3.158,9.943-10.867,9.951-17.19v-8.333c-1.833-.039-3.651,0-5.453.077V170a9.912,9.912,0,0,1-4.482,7.756L81.726,211.69A6.03,6.03,0,0,0,79,216.411C79,218.19,80.217,218.852,81.719,217.99Z" transform="translate(-18.147 -36.431)" fill="#ad71f0"/>
      <path id="Path_21" data-name="Path 21" d="M79.91,233.059,193.2,298.615l95.924-57.2,7.609-11.36-.793,4.02L293.9,223.54l-178.054,6.793-31.369-2.018Z" transform="translate(-18.356 -51.378)" fill="#994af0"/>
      <path id="Path_22" data-name="Path 22" d="M84.781,210.21l-.031,13.948L194.244,287.5l2.957-13.285Z" transform="translate(-19.468 -48.314)" fill="#e573b5"/>
      <path id="Path_23" data-name="Path 23" d="M295.356,198.191,182.243,132.75,80.258,192.06l-.208,1.456,113.275,65.533Z" transform="translate(-18.388 -30.511)" fill="#ad71f0"/>
      <path id="Path_24" data-name="Path 24" d="M293.031,252.9l26.594-15.781a9.966,9.966,0,0,0,4-7.417v-2.087c0-1.687-.709-2.78-1.794-3.081l-52.371,29.128L226.82,276.716V290.81Z" transform="translate(-52.122 -51.605)" fill="#fff"/>
      <path id="Path_25" data-name="Path 25" d="M196.722,273.746l-112.4-65.025-2.38-1.379-2.164-1.263a5.461,5.461,0,0,0-.724,2.534,1.918,1.918,0,0,0,.77,1.748h0L193.079,275.88Z" transform="translate(-18.157 -47.365)" fill="#994af0"/>
      <path id="Path_26" data-name="Path 26" d="M225.18,319.863l1.409.816.262-.447-.878-.693Z" transform="translate(-51.745 -73.442)" fill="#fff"/>
      <path id="Path_27" data-name="Path 27" d="M225.23,295.64l1.448.839-.362-.793Z" transform="translate(-51.756 -67.949)" fill="#fff"/>
      <path id="Path_28" data-name="Path 28" d="M228.845,271.924l93.136-53.657c5.476-3.158,9.927-.585,9.927,5.738V226.1c0,6.323-4.467,14.032-9.951,17.19l-93.151,53.657c-1.54.87-2.726.162-2.726-1.54a6.023,6.023,0,0,1,2.726-4.721l93.136-53.68a9.912,9.912,0,0,0,4.49-7.748v-2.095c0-2.85-2-4.013-4.475-2.588l-93.12,53.642c-1.5.87-2.726.162-2.726-1.54a6.038,6.038,0,0,1,2.734-4.752Z" transform="translate(-51.951 -49.856)" fill="#ad71f0"/>
      <path id="Path_29" data-name="Path 29" d="M225.634,297.489a6.023,6.023,0,0,1,2.726-4.721L321.5,239.118a9.912,9.912,0,0,0,4.49-7.748v-2.095c0-1.864-.863-3-2.149-3.165a3.689,3.689,0,0,1,.655,2.31v2.095a9.889,9.889,0,0,1-4.49,7.748L226.874,291.9a6.007,6.007,0,0,0-2.734,4.713c0,1.325.7,2.041,1.694,1.941A2.766,2.766,0,0,1,225.634,297.489Z" transform="translate(-51.506 -51.968)" fill="#fff"/>
      <path id="Path_30" data-name="Path 30" d="M225.676,276.389a6.038,6.038,0,0,1,2.734-4.721l93.136-53.657c2.357-1.363,4.521-1.656,6.231-1.047-1.825-1.54-4.621-1.617-7.7.185l-93.159,53.657a6.03,6.03,0,0,0-2.726,4.721c0,1.317.7,2.033,1.694,1.933A2.625,2.625,0,0,1,225.676,276.389Z" transform="translate(-51.517 -49.599)" fill="#fff"/>
      <path id="Path_31" data-name="Path 31" d="M328.4,75.393,227.916,17.376a4.059,4.059,0,0,0-3.4-.416h0l-.185.069h-.046l-3.627,1.386,3.265,1.61-.046.177L207.506,94.731c-.824,3.728.816,8.087,3.658,9.727l98.072,56.584-.354,4.159,3.974-1.54a5.592,5.592,0,0,0,2.842-4.043l16.366-74.5C332.881,81.385,331.241,77.018,328.4,75.393Z" transform="translate(-47.634 -3.852)" fill="#173d7a"/>
      <path id="Path_32" data-name="Path 32" d="M330.126,75.393,229.643,17.376a4.059,4.059,0,0,0-3.4-.416h0l-.185.069h-.046l-3.627,1.386,3.265,1.61-.046.177L214.81,69.316l49.167,38.308,69.315-28.211a7.779,7.779,0,0,0-3.165-4.02Z" transform="translate(-49.361 -3.852)" fill="#396caa"/>
      <path id="Path_33" data-name="Path 33" d="M357.37,104.5l7.648-3.258a9.566,9.566,0,0,0-3.081-7.655L349.83,98.681Z" transform="translate(-80.394 -21.51)" fill="#274f89"/>
      <path id="Path_34" data-name="Path 34" d="M303.526,165.237,203.043,107.213c-2.842-1.64-4.482-5.992-3.666-9.727l16.366-74.5c.824-3.728,3.789-5.391,6.631-3.781L322.857,77.223c2.842,1.64,4.482,5.992,3.666,9.719l-16.366,74.505C309.341,165.176,306.368,166.87,303.526,165.237Z" transform="translate(-45.766 -4.273)" fill="#d4ecff"/>
      <path id="Path_35" data-name="Path 35" d="M329.839,76.762,229.371,18.746a3.959,3.959,0,0,0-3.951-.169,4.128,4.128,0,0,1,2.988.524L328.891,77.116c2.842,1.64,4.482,5.992,3.666,9.719l-16.366,74.505a5.668,5.668,0,0,1-2.672,3.951c1.694-.37,3.081-1.91,3.635-4.305L333.52,86.482C334.344,82.723,332.7,78.4,329.839,76.762Z" transform="translate(-51.8 -4.166)" fill="#fff"/>
      <path id="Path_36" data-name="Path 36" d="M302.579,161.317l-94.5-54.52c-2.6-1.5-4.1-5.484-3.358-8.9L219.7,29.727c.77-3.412,3.466-4.96,6.069-3.458L320.27,80.8c2.6,1.54,4.1,5.484,3.358,8.9l-14.98,68.159C307.9,161.27,305.183,162.818,302.579,161.317Z" transform="translate(-46.999 -5.905)" fill="#fff"/>
      <path id="Path_37" data-name="Path 37" d="M302.579,161.317l-94.5-54.52c-2.6-1.5-4.1-5.484-3.358-8.9L219.7,29.727c.77-3.412,3.466-4.96,6.069-3.458L320.27,80.8c2.6,1.54,4.1,5.484,3.358,8.9l-14.98,68.159C307.9,161.27,305.183,162.818,302.579,161.317Z" transform="translate(-46.999 -5.905)" fill="#173d7a"/>
      <path id="Path_38" data-name="Path 38" d="M303.4,161.012l-94.5-54.535c-2.6-1.54-4.1-5.491-3.358-8.9L220.524,29.4a5.222,5.222,0,0,1,2.38-3.589c-1.494.385-2.734,1.794-3.2,3.928l-14.98,68.175c-.77,3.412.77,7.394,3.358,8.9l94.5,54.535a3.651,3.651,0,0,0,3.689.131A3.774,3.774,0,0,1,303.4,161.012Z" transform="translate(-46.997 -5.932)" fill="#5793ce"/>
      <path id="Path_39" data-name="Path 39" d="M281.372,196.12,267.64,194.3,178.971,143.11c-2.842-1.64-7.809-1.432-11.09.462l-62.83,36.259-8.3-1.094v4.713h0a3.234,3.234,0,0,0,1.91,2.911l100.483,58.016c2.842,1.64,7.809,1.432,11.09-.462L278.7,204.422c1.848-1.063,2.765-2.434,2.711-3.728h0Z" transform="translate(-22.226 -32.638)" fill="#173d7a"/>
      <path id="Path_40" data-name="Path 40" d="M214.776,169.183l-6.3-3.643H139.2l-34.149,19.7-8.3-1.094v4.713h0a3.234,3.234,0,0,0,1.91,2.911l100.483,58.016a10.459,10.459,0,0,0,5.722,1.071Z" transform="translate(-22.226 -38.047)" fill="#396caa"/>
      <path id="Path_41" data-name="Path 41" d="M100.43,190.185l-3.681-.485v4.713h0a3.234,3.234,0,0,0,1.91,2.911l1.764,1.024Z" transform="translate(-22.226 -43.6)" fill="#5793ce"/>
      <path id="Path_42" data-name="Path 42" d="M231,272.228a12.9,12.9,0,0,0,9.427-.585V261.13H231Z" transform="translate(-53.082 -60.017)" fill="#274f89"/>
      <path id="Path_43" data-name="Path 43" d="M199.149,237.342,98.666,179.326c-2.85-1.64-2.488-4.513.77-6.408l68.421-39.486c3.281-1.895,8.248-2.1,11.09-.462l100.522,58.016c2.842,1.64,2.488,4.505-.77,6.4L210.277,236.88C206.958,238.775,201.99,239.021,199.149,237.342Z" transform="translate(-22.224 -30.307)" fill="#d4ecff"/>
      <path id="Path_44" data-name="Path 44" d="M278.7,208.741l-68.46,39.5c-3.281,1.895-8.248,2.1-11.09.462L98.668,190.673A3.758,3.758,0,0,1,96.9,188.74c-.447,1.348.123,2.7,1.771,3.658l100.483,58.016c2.842,1.64,7.809,1.433,11.09-.462l68.46-39.494c2.2-1.271,3.081-2.981,2.565-4.467A5.345,5.345,0,0,1,278.7,208.741Z" transform="translate(-22.226 -43.379)" fill="#fff"/>
      <path id="Path_45" data-name="Path 45" d="M153.3,166.541l-4.552-2.626c-.362-.208-.316-.578.108-.824l5.391-3.081a1.587,1.587,0,0,1,1.425-.062l4.552,2.626c.362.216.316.578-.108.824l-5.391,3.081A1.586,1.586,0,0,1,153.3,166.541Z" transform="translate(-34.122 -36.73)" fill="#5793ce"/>
      <path id="Path_46" data-name="Path 46" d="M162.411,171.8l-4.544-2.626c-.362-.208-.316-.578.1-.816l5.391-3.081a1.579,1.579,0,0,1,1.425-.054l4.544,2.626c.37.208.323.578-.1.816l-5.391,3.081a1.579,1.579,0,0,1-1.425.054Z" transform="translate(-36.217 -37.942)" fill="#5793ce"/>
      <path id="Path_47" data-name="Path 47" d="M171.569,177.071l-4.544-2.626c-.37-.216-.323-.578.1-.824l5.391-3.081a1.587,1.587,0,0,1,1.425-.062l4.544,2.626c.362.208.316.578-.1.824l-5.391,3.081A1.587,1.587,0,0,1,171.569,177.071Z" transform="translate(-38.321 -39.15)" fill="#5793ce"/>
      <path id="Path_48" data-name="Path 48" d="M184.139,172.866l-4.544-2.626c-.37-.208-.323-.578.1-.824l4.505-2.6a1.587,1.587,0,0,1,1.425-.062l4.544,2.626c.362.208.316.578-.1.824l-4.505,2.6A1.586,1.586,0,0,1,184.139,172.866Z" transform="translate(-41.21 -38.295)" fill="#5793ce"/>
      <path id="Path_49" data-name="Path 49" d="M193.259,178.136l-4.552-2.626c-.362-.208-.316-.578.1-.816l4.505-2.6a1.587,1.587,0,0,1,1.425-.062l4.552,2.626c.362.208.316.578-.108.824l-4.505,2.6A1.54,1.54,0,0,1,193.259,178.136Z" transform="translate(-43.306 -39.506)" fill="#5793ce"/>
      <path id="Path_50" data-name="Path 50" d="M202.369,183.394l-4.544-2.626c-.37-.216-.323-.578.1-.824l4.505-2.6a1.579,1.579,0,0,1,1.425-.054l4.544,2.619c.37.216.323.585-.1.824l-4.505,2.6A1.587,1.587,0,0,1,202.369,183.394Z" transform="translate(-45.4 -40.714)" fill="#5793ce"/>
      <path id="Path_51" data-name="Path 51" d="M211.489,188.656l-4.544-2.626c-.37-.208-.323-.578.1-.824l4.505-2.6a1.587,1.587,0,0,1,1.425-.062l4.544,2.626c.362.208.316.578-.1.824l-4.505,2.6A1.587,1.587,0,0,1,211.489,188.656Z" transform="translate(-47.496 -41.924)" fill="#5793ce"/>
      <path id="Path_52" data-name="Path 52" d="M220.569,193.916l-4.552-2.626c-.362-.208-.316-.578.1-.816l4.505-2.6a1.587,1.587,0,0,1,1.425-.062l4.552,2.626c.362.216.316.578-.108.824l-4.505,2.6A1.54,1.54,0,0,1,220.569,193.916Z" transform="translate(-49.583 -43.133)" fill="#5793ce"/>
      <path id="Path_53" data-name="Path 53" d="M229.719,199.184l-4.544-2.626c-.37-.216-.323-.578.1-.824l4.505-2.6a1.579,1.579,0,0,1,1.425-.054l4.544,2.626c.37.208.323.578-.1.816l-4.505,2.626A1.587,1.587,0,0,1,229.719,199.184Z" transform="translate(-51.686 -44.343)" fill="#5793ce"/>
      <path id="Path_54" data-name="Path 54" d="M238.839,204.446l-4.552-2.626c-.362-.208-.316-.578.108-.824l4.505-2.6a1.586,1.586,0,0,1,1.425-.062l4.544,2.626c.362.208.316.578-.1.824l-4.505,2.6a1.586,1.586,0,0,1-1.425.062Z" transform="translate(-53.782 -45.553)" fill="#5793ce"/>
      <path id="Path_55" data-name="Path 55" d="M247.951,209.706l-4.544-2.626c-.362-.208-.316-.578.1-.816l4.505-2.6a1.587,1.587,0,0,1,1.425-.062l4.552,2.626c.362.216.316.578-.108.824l-4.505,2.6a1.579,1.579,0,0,1-1.425.054Z" transform="translate(-55.878 -46.762)" fill="#5793ce"/>
      <path id="Path_56" data-name="Path 56" d="M257.069,214.974l-4.544-2.626c-.37-.216-.323-.578.1-.824l4.505-2.6a1.579,1.579,0,0,1,1.425-.054l4.544,2.626c.37.208.323.578-.1.816l-4.505,2.6A1.586,1.586,0,0,1,257.069,214.974Z" transform="translate(-57.972 -47.972)" fill="#5793ce"/>
      <path id="Path_57" data-name="Path 57" d="M266.189,220.236l-4.552-2.626c-.362-.208-.316-.578.108-.824l4.505-2.6a1.587,1.587,0,0,1,1.425-.062l4.544,2.626c.362.208.316.578-.1.824l-4.505,2.58a1.586,1.586,0,0,1-1.425.077Z" transform="translate(-60.068 -49.182)" fill="#5793ce"/>
      <path id="Path_58" data-name="Path 58" d="M197.569,170.374l-4.544-2.626c-.37-.208-.323-.578.1-.824l4.505-2.6a1.579,1.579,0,0,1,1.425-.054l4.544,2.626c.37.208.323.578-.1.816l-4.505,2.6A1.586,1.586,0,0,1,197.569,170.374Z" transform="translate(-44.297 -37.721)" fill="#5793ce"/>
      <path id="Path_59" data-name="Path 59" d="M188.319,165.034l-4.544-2.626c-.37-.216-.323-.578.1-.824l4.505-2.6a1.579,1.579,0,0,1,1.425-.054l4.544,2.619c.362.216.316.585-.1.824l-4.505,2.6a1.61,1.61,0,0,1-1.425.062Z" transform="translate(-42.171 -36.494)" fill="#5793ce"/>
      <path id="Path_60" data-name="Path 60" d="M177.484,158.772l-9.789-5.653c-.37-.208-.323-.578.1-.816l4.505-2.6a1.586,1.586,0,0,1,1.425-.062l9.789,5.638c.37.216.323.578-.1.824l-4.505,2.6a1.579,1.579,0,0,1-1.425.069Z" transform="translate(-38.475 -34.36)" fill="#5793ce"/>
      <path id="Path_61" data-name="Path 61" d="M184.555,152.54l-7.948-4.621c-.362-.208-.316-.578.1-.824l4.505-2.6a1.587,1.587,0,0,1,1.425-.062l7.948,4.621c.362.208.323.578-.1.816l-4.536,2.665a1.587,1.587,0,0,1-1.394,0Z" transform="translate(-40.525 -33.165)" fill="#5793ce"/>
      <path id="Path_62" data-name="Path 62" d="M206.689,175.636l-4.552-2.626c-.362-.208-.316-.578.108-.824l4.505-2.6a1.587,1.587,0,0,1,1.425-.062l4.582,2.642c.362.208.316.578-.1.824l-4.521,2.58a1.586,1.586,0,0,1-1.448.062Z" transform="translate(-46.393 -38.932)" fill="#5793ce"/>
      <path id="Path_63" data-name="Path 63" d="M215.8,180.9l-4.544-2.619c-.362-.216-.316-.585.1-.824l4.505-2.6a1.61,1.61,0,0,1,1.425-.062l4.552,2.626c.362.216.316.578-.108.824l-4.505,2.6A1.579,1.579,0,0,1,215.8,180.9Z" transform="translate(-48.488 -40.141)" fill="#5793ce"/>
      <path id="Path_64" data-name="Path 64" d="M224.919,186.134l-4.544-2.626c-.37-.208-.323-.578.1-.824l4.505-2.6a1.579,1.579,0,0,1,1.425-.054l4.544,2.626c.37.208.323.578-.1.816l-4.505,2.665A1.586,1.586,0,0,1,224.919,186.134Z" transform="translate(-50.583 -41.344)" fill="#5793ce"/>
      <path id="Path_65" data-name="Path 65" d="M234.039,191.426l-4.552-2.626c-.362-.208-.316-.578.108-.816l4.505-2.6a1.587,1.587,0,0,1,1.425-.062l4.544,2.626c.362.208.316.578-.1.824l-4.505,2.6A1.586,1.586,0,0,1,234.039,191.426Z" transform="translate(-52.679 -42.561)" fill="#5793ce"/>
      <path id="Path_66" data-name="Path 66" d="M243.151,196.686l-4.544-2.619c-.362-.216-.316-.585.1-.824l4.505-2.6a1.61,1.61,0,0,1,1.425-.062l4.552,2.626c.362.216.316.578-.108.824l-4.505,2.6A1.579,1.579,0,0,1,243.151,196.686Z" transform="translate(-54.775 -43.771)" fill="#5793ce"/>
      <path id="Path_67" data-name="Path 67" d="M252.269,201.954l-4.544-2.626c-.37-.208-.323-.578.1-.824l4.505-2.6a1.579,1.579,0,0,1,1.425-.054l4.544,2.626c.37.208.323.578-.1.816l-4.505,2.6A1.586,1.586,0,0,1,252.269,201.954Z" transform="translate(-56.869 -44.98)" fill="#5793ce"/>
      <path id="Path_68" data-name="Path 68" d="M261.389,207.216l-4.552-2.626c-.362-.208-.316-.578.108-.816l4.505-2.6a1.587,1.587,0,0,1,1.425-.062l4.544,2.626c.362.208.316.578-.1.824l-4.505,2.6A1.54,1.54,0,0,1,261.389,207.216Z" transform="translate(-58.965 -46.19)" fill="#5793ce"/>
      <path id="Path_69" data-name="Path 69" d="M270.5,212.477l-4.544-2.619c-.362-.216-.316-.585.1-.824l4.505-2.6a1.579,1.579,0,0,1,1.425-.054L276.539,209c.362.216.316.585-.108.824l-4.505,2.6A1.579,1.579,0,0,1,270.5,212.477Z" transform="translate(-61.061 -47.4)" fill="#5793ce"/>
      <path id="Path_70" data-name="Path 70" d="M279.619,217.744l-4.544-2.626c-.37-.208-.323-.578.1-.824l4.505-2.6a1.54,1.54,0,0,1,1.425-.062l4.544,2.626c.37.208.323.578-.1.816l-4.505,2.6a1.586,1.586,0,0,1-1.425.062Z" transform="translate(-63.155 -48.608)" fill="#5793ce"/>
      <path id="Path_71" data-name="Path 71" d="M294.225,226.208l-9.92-5.73c-.37-.208-.323-.578.1-.824l4.505-2.6a1.579,1.579,0,0,1,1.425-.054l9.92,5.722c.362.216.316.585-.1.824l-4.505,2.6A1.61,1.61,0,0,1,294.225,226.208Z" transform="translate(-65.276 -49.841)" fill="#5793ce"/>
      <path id="Path_72" data-name="Path 72" d="M312.427,216.2l-8.379-4.837c-.362-.208-.316-.578.108-.824l4.505-2.6a1.587,1.587,0,0,1,1.425-.062l8.372,4.837c.362.208.316.578-.108.816l-4.5,2.6a1.587,1.587,0,0,1-1.425.062Z" transform="translate(-69.815 -47.746)" fill="#5793ce"/>
      <path id="Path_73" data-name="Path 73" d="M222.651,174.606l-4.544-2.626c-.362-.208-.316-.578.1-.824l4.505-2.6a1.587,1.587,0,0,1,1.425-.062l4.544,2.626c.37.208.323.578-.1.824l-4.505,2.6A1.586,1.586,0,0,1,222.651,174.606Z" transform="translate(-50.063 -38.695)" fill="#5793ce"/>
      <path id="Path_74" data-name="Path 74" d="M213.309,169.214l-4.544-2.626c-.37-.216-.323-.578.1-.824l4.505-2.6a1.579,1.579,0,0,1,1.425-.054l4.544,2.626c.37.208.323.578-.1.816l-4.505,2.6A1.587,1.587,0,0,1,213.309,169.214Z" transform="translate(-47.914 -37.455)" fill="#5793ce"/>
      <path id="Path_75" data-name="Path 75" d="M203.969,163.815l-4.552-2.626c-.362-.208-.316-.578.108-.816l4.505-2.6a1.54,1.54,0,0,1,1.417-.062L210,160.333c.362.208.316.578-.1.824l-4.505,2.6a1.579,1.579,0,0,1-1.425.054Z" transform="translate(-45.767 -36.214)" fill="#5793ce"/>
      <path id="Path_76" data-name="Path 76" d="M194.621,158.424l-4.544-2.626c-.362-.208-.316-.578.1-.824l4.505-2.6a1.579,1.579,0,0,1,1.425-.054l4.544,2.626c.37.208.323.578-.1.816l-4.505,2.6A1.587,1.587,0,0,1,194.621,158.424Z" transform="translate(-43.621 -34.975)" fill="#5793ce"/>
      <path id="Path_77" data-name="Path 77" d="M231.769,179.866l-4.544-2.619c-.37-.216-.323-.585.1-.824l4.505-2.6a1.61,1.61,0,0,1,1.425-.062l4.544,2.626c.362.216.323.578-.1.824l-4.505,2.6A1.579,1.579,0,0,1,231.769,179.866Z" transform="translate(-52.157 -39.905)" fill="#5793ce"/>
      <path id="Path_78" data-name="Path 78" d="M240.889,185.134l-4.552-2.626c-.362-.208-.316-.578.108-.824l4.5-2.6a1.579,1.579,0,0,1,1.425-.054l4.552,2.626c.362.208.316.578-.108.816l-4.5,2.6a1.587,1.587,0,0,1-1.425.062Z" transform="translate(-54.253 -41.114)" fill="#5793ce"/>
      <path id="Path_79" data-name="Path 79" d="M250,190.4l-4.544-2.626c-.362-.208-.323-.578.1-.816l4.505-2.6a1.586,1.586,0,0,1,1.425-.062l4.544,2.626c.37.208.323.578-.1.824l-4.505,2.6A1.587,1.587,0,0,1,250,190.4Z" transform="translate(-56.348 -42.324)" fill="#5793ce"/>
      <path id="Path_80" data-name="Path 80" d="M259.119,195.657l-4.544-2.619c-.37-.216-.323-.585.1-.824l4.505-2.6a1.579,1.579,0,0,1,1.425-.054l4.544,2.619c.362.216.323.578-.1.824l-4.505,2.6A1.579,1.579,0,0,1,259.119,195.657Z" transform="translate(-58.443 -43.534)" fill="#5793ce"/>
      <path id="Path_81" data-name="Path 81" d="M268.239,200.924l-4.552-2.626c-.362-.208-.316-.578.108-.824l4.5-2.6a1.54,1.54,0,0,1,1.425-.062l4.552,2.626c.362.208.316.578-.108.816l-4.5,2.6A1.587,1.587,0,0,1,268.239,200.924Z" transform="translate(-60.539 -44.743)" fill="#5793ce"/>
      <path id="Path_82" data-name="Path 82" d="M277.35,206.186l-4.544-2.626c-.362-.208-.323-.578.1-.816l4.505-2.6a1.587,1.587,0,0,1,1.425-.062l4.544,2.626c.37.208.323.578-.1.824l-4.505,2.619A1.54,1.54,0,0,1,277.35,206.186Z" transform="translate(-62.634 -45.953)" fill="#5793ce"/>
      <path id="Path_83" data-name="Path 83" d="M286.469,211.447l-4.544-2.619c-.37-.216-.323-.578.1-.824l4.505-2.6a1.579,1.579,0,0,1,1.425-.054l4.544,2.619c.362.216.316.585-.1.824l-4.505,2.6A1.579,1.579,0,0,1,286.469,211.447Z" transform="translate(-64.729 -47.163)" fill="#5793ce"/>
      <path id="Path_84" data-name="Path 84" d="M295.569,216.716l-4.552-2.626c-.362-.208-.316-.578.1-.824l4.505-2.6a1.587,1.587,0,0,1,1.425-.062l4.552,2.626c.362.208.316.578-.108.816l-4.505,2.6a1.54,1.54,0,0,1-1.417.062Z" transform="translate(-66.82 -48.373)" fill="#5793ce"/>
      <path id="Path_85" data-name="Path 85" d="M304.7,221.976l-4.544-2.626c-.37-.208-.324-.578.1-.816l4.505-2.6a1.587,1.587,0,0,1,1.425-.062l4.544,2.626c.37.208.323.578-.1.824l-4.49,2.6A1.579,1.579,0,0,1,304.7,221.976Z" transform="translate(-68.919 -49.582)" fill="#5793ce"/>
      <path id="Path_86" data-name="Path 86" d="M217.85,161.586l-4.544-2.626c-.362-.208-.323-.578.1-.816l4.505-2.6a1.587,1.587,0,0,1,1.425-.062l4.544,2.626c.37.208.323.578-.1.824l-4.505,2.6A1.579,1.579,0,0,1,217.85,161.586Z" transform="translate(-48.959 -35.702)" fill="#5793ce"/>
      <path id="Path_87" data-name="Path 87" d="M208.779,156.347l-4.544-2.619c-.37-.216-.323-.585.1-.824l4.505-2.6a1.579,1.579,0,0,1,1.425-.054l4.544,2.619c.37.216.323.585-.1.824l-4.505,2.6A1.579,1.579,0,0,1,208.779,156.347Z" transform="translate(-46.873 -34.499)" fill="#5793ce"/>
      <path id="Path_88" data-name="Path 88" d="M199.709,151.134l-4.544-2.626c-.37-.208-.323-.578.1-.824l4.505-2.6a1.579,1.579,0,0,1,1.425-.054l4.544,2.626c.37.208.323.578-.1.816l-4.5,2.588A1.587,1.587,0,0,1,199.709,151.134Z" transform="translate(-44.789 -33.299)" fill="#5793ce"/>
      <path id="Path_89" data-name="Path 89" d="M190.639,145.876l-4.544-2.626c-.37-.208-.323-.578.1-.824l4.505-2.6a1.587,1.587,0,0,1,1.425-.062l4.544,2.626c.362.208.316.578-.1.824l-4.505,2.6a1.586,1.586,0,0,1-1.425.062Z" transform="translate(-42.704 -32.092)" fill="#5793ce"/>
      <path id="Path_90" data-name="Path 90" d="M199.969,141.006l-4.552-2.619c-.362-.216-.316-.585.108-.824l1.486-.863a1.579,1.579,0,0,1,1.425-.054l4.544,2.619c.37.216.323.585-.1.824l-1.486.863A1.579,1.579,0,0,1,199.969,141.006Z" transform="translate(-44.848 -31.373)" fill="#5793ce"/>
      <path id="Path_91" data-name="Path 91" d="M211.809,147.845l-4.552-2.626c-.362-.208-.316-.578.1-.824l1.494-.855a1.586,1.586,0,0,1,1.425-.062l4.544,2.626c.362.208.323.578-.1.824l-1.494.855A1.54,1.54,0,0,1,211.809,147.845Z" transform="translate(-47.569 -32.944)" fill="#5793ce"/>
      <path id="Path_92" data-name="Path 92" d="M220.839,153.056l-4.544-2.619c-.37-.216-.323-.578.1-.824l1.486-.863a1.579,1.579,0,0,1,1.425-.054l4.544,2.619c.37.216.324.585-.1.824l-1.486.863A1.579,1.579,0,0,1,220.839,153.056Z" transform="translate(-49.645 -34.143)" fill="#5793ce"/>
      <path id="Path_93" data-name="Path 93" d="M229.869,158.275l-4.544-2.626c-.37-.208-.323-.578.1-.824l1.486-.855a1.587,1.587,0,0,1,1.425-.062l4.552,2.626c.362.208.316.578-.108.824l-1.486.855a1.586,1.586,0,0,1-1.425.062Z" transform="translate(-51.721 -35.342)" fill="#5793ce"/>
      <path id="Path_94" data-name="Path 94" d="M238.909,163.494l-4.552-2.626c-.362-.216-.316-.578.1-.824l1.494-.863a1.579,1.579,0,0,1,1.425-.054l4.544,2.626c.362.208.323.578-.1.816l-1.494.863A1.54,1.54,0,0,1,238.909,163.494Z" transform="translate(-53.798 -36.54)" fill="#5793ce"/>
      <path id="Path_95" data-name="Path 95" d="M289.339,192.655l-4.552-2.626c-.362-.208-.316-.578.108-.816l1.486-.863a1.587,1.587,0,0,1,1.425-.062l4.544,2.626c.37.216.324.578-.1.824l-1.486.863A1.579,1.579,0,0,1,289.339,192.655Z" transform="translate(-65.389 -43.243)" fill="#5793ce"/>
      <path id="Path_96" data-name="Path 96" d="M298.369,197.825l-4.544-2.626c-.37-.208-.324-.578.1-.824l1.486-.855a1.586,1.586,0,0,1,1.425-.062l4.552,2.626c.362.208.316.578-.108.824l-1.486.855A1.587,1.587,0,0,1,298.369,197.825Z" transform="translate(-67.465 -44.432)" fill="#5793ce"/>
      <path id="Path_97" data-name="Path 97" d="M307.4,203.036l-4.544-2.619c-.362-.216-.316-.585.1-.824l1.494-.863a1.61,1.61,0,0,1,1.425-.062l4.544,2.626c.362.216.316.578-.1.824l-1.494.863A1.579,1.579,0,0,1,307.4,203.036Z" transform="translate(-69.542 -45.63)" fill="#5793ce"/>
      <path id="Path_98" data-name="Path 98" d="M316.448,208.253l-4.521-2.626c-.362-.208-.316-.578.108-.824l1.432-.863a1.586,1.586,0,0,1,1.425-.062l4.544,2.626c.37.208.323.578-.1.824l-1.486.855a1.586,1.586,0,0,1-1.4.069Z" transform="translate(-71.627 -46.827)" fill="#5793ce"/>
      <path id="Path_99" data-name="Path 99" d="M226.969,166.854l-4.544-2.626c-.37-.216-.323-.578.1-.824l4.505-2.6a1.579,1.579,0,0,1,1.425-.054L233,163.365c.362.216.323.585-.1.824l-4.505,2.6a1.61,1.61,0,0,1-1.425.062Z" transform="translate(-51.054 -36.912)" fill="#5793ce"/>
      <path id="Path_100" data-name="Path 100" d="M236.089,172.136l-4.552-2.626c-.362-.208-.316-.578.108-.824l4.5-2.6a1.587,1.587,0,0,1,1.425-.062l4.552,2.626c.362.208.316.578-.108.824l-4.5,2.6a1.587,1.587,0,0,1-1.425.062Z" transform="translate(-53.15 -38.127)" fill="#5793ce"/>
      <path id="Path_101" data-name="Path 101" d="M245.2,177.376l-4.544-2.626c-.362-.208-.323-.578.1-.816l4.505-2.6a1.586,1.586,0,0,1,1.425-.062l4.544,2.626c.37.208.323.578-.1.824l-4.505,2.6A1.579,1.579,0,0,1,245.2,177.376Z" transform="translate(-55.245 -39.332)" fill="#5793ce"/>
      <path id="Path_102" data-name="Path 102" d="M254.319,182.644l-4.544-2.626c-.37-.216-.323-.578.1-.824l4.505-2.6a1.579,1.579,0,0,1,1.425-.054l4.544,2.619c.362.216.316.585-.1.824l-4.505,2.6A1.586,1.586,0,0,1,254.319,182.644Z" transform="translate(-57.34 -40.541)" fill="#5793ce"/>
      <path id="Path_103" data-name="Path 103" d="M263.448,187.906l-4.521-2.626c-.362-.208-.316-.578.1-.824l4.505-2.6a1.586,1.586,0,0,1,1.425-.062l4.552,2.626c.362.208.316.578-.108.824l-4.505,2.6a1.54,1.54,0,0,1-1.448.062Z" transform="translate(-59.445 -41.752)" fill="#5793ce"/>
      <path id="Path_104" data-name="Path 104" d="M272.569,193.136l-4.544-2.626c-.37-.208-.324-.578.1-.816l4.505-2.6a1.587,1.587,0,0,1,1.425-.062l4.544,2.626c.37.216.323.578-.1.824l-4.521,2.657A1.579,1.579,0,0,1,272.569,193.136Z" transform="translate(-61.535 -42.954)" fill="#5793ce"/>
      <path id="Path_105" data-name="Path 105" d="M281.669,198.434l-4.544-2.626c-.37-.216-.323-.578.1-.824l4.505-2.6a1.579,1.579,0,0,1,1.425-.054l4.544,2.619c.362.216.316.585-.1.824l-4.467,2.6a1.586,1.586,0,0,1-1.463.062Z" transform="translate(-63.626 -44.171)" fill="#5793ce"/>
      <path id="Path_106" data-name="Path 106" d="M290.789,203.7l-4.552-2.626c-.362-.208-.316-.578.1-.824l4.505-2.6a1.587,1.587,0,0,1,1.425-.062l4.552,2.626c.362.208.316.578-.108.824l-4.505,2.6a1.54,1.54,0,0,1-1.417.062Z" transform="translate(-65.722 -45.381)" fill="#5793ce"/>
      <path id="Path_107" data-name="Path 107" d="M299.9,208.956l-4.544-2.626c-.37-.208-.323-.578.1-.816l4.505-2.6a1.587,1.587,0,0,1,1.425-.062l4.544,2.626c.37.216.324.578-.1.824l-4.505,2.6A1.579,1.579,0,0,1,299.9,208.956Z" transform="translate(-67.816 -46.59)" fill="#5793ce"/>
      <path id="Path_108" data-name="Path 108" d="M172.21,165.99l-13.393-7.7c-.362-.216-.316-.578.108-.824l4.5-2.6a1.579,1.579,0,0,1,1.425-.054l13.393,7.7c.362.216.316.585-.1.824l-4.505,2.6a1.61,1.61,0,0,1-1.425.054Z" transform="translate(-36.436 -35.547)" fill="#5793ce"/>
      <path id="Path_109" data-name="Path 109" d="M284.21,230.621l-13.393-7.7c-.362-.208-.316-.578.1-.824l4.505-2.6a1.586,1.586,0,0,1,1.425-.062l13.393,7.7c.362.208.316.578-.1.816l-4.505,2.665a1.586,1.586,0,0,1-1.425,0Z" transform="translate(-62.178 -50.403)" fill="#5793ce"/>
      <path id="Path_110" data-name="Path 110" d="M250.389,222.6l-4.544-2.626c-.37-.216-.323-.578.1-.824l5.391-3.081a1.586,1.586,0,0,1,1.425-.062l4.544,2.626c.362.208.316.578-.1.824l-5.391,3.081A1.61,1.61,0,0,1,250.389,222.6Z" transform="translate(-56.437 -49.615)" fill="#5793ce"/>
      <path id="Path_111" data-name="Path 111" d="M183.368,183.9l-7.27-4.2c-.362-.208-.316-.578.108-.824L181.6,175.8a1.587,1.587,0,0,1,1.425-.062l7.27,4.2c.37.216.323.585-.1.824L184.8,183.84A1.579,1.579,0,0,1,183.368,183.9Z" transform="translate(-40.408 -40.359)" fill="#5793ce"/>
      <path id="Path_112" data-name="Path 112" d="M240.755,217.055l-7.278-4.2c-.362-.208-.316-.578.108-.816l5.391-3.081a1.579,1.579,0,0,1,1.425-.054l7.278,4.2c.362.208.316.578-.108.816L242.18,217A1.54,1.54,0,0,1,240.755,217.055Z" transform="translate(-53.596 -47.981)" fill="#5793ce"/>
      <path id="Path_113" data-name="Path 113" d="M196.526,191.523l-7.27-4.2c-.37-.216-.323-.585.1-.824l5.391-3.081a1.579,1.579,0,0,1,1.425-.054l7.27,4.2c.362.208.316.578-.1.824l-5.391,3.081A1.586,1.586,0,0,1,196.526,191.523Z" transform="translate(-43.43 -42.111)" fill="#5793ce"/>
      <path id="Path_114" data-name="Path 114" d="M196.271,183.39l31.577,18.253a.439.439,0,0,1,0,.824l-5.476,3.158a1.579,1.579,0,0,1-1.417,0L189.34,187.372Z" transform="translate(-43.507 -42.15)" fill="#5793ce"/>
      <path id="Path_115" data-name="Path 115" d="M276.21,234.114l5.06,2.919c.3.177.262.478-.077.678l-2.2,1.271a1.317,1.317,0,0,1-1.163.046L272.76,236.1c-.3-.169-.262-.47.085-.67l2.195-1.271A1.286,1.286,0,0,1,276.21,234.114Z" transform="translate(-62.634 -53.781)" fill="#5793ce"/>
      <path id="Path_116" data-name="Path 116" d="M267.02,228.806l5.06,2.927c.3.169.262.47-.085.67l-2.195,1.271a1.271,1.271,0,0,1-1.163.046l-5.068-2.927c-.3-.169-.262-.47.085-.67l2.195-1.271a1.34,1.34,0,0,1,1.171-.046Z" transform="translate(-60.521 -52.562)" fill="#5793ce"/>
      <path id="Path_117" data-name="Path 117" d="M257.911,223.544l5.068,2.919c.293.177.262.478-.085.678l-2.195,1.271a1.34,1.34,0,0,1-1.171.046l-5.068-2.927c-.293-.169-.262-.47.085-.67l2.195-1.271a1.286,1.286,0,0,1,1.171-.046Z" transform="translate(-58.429 -51.351)" fill="#5793ce"/>
      <path id="Path_118" data-name="Path 118" d="M272.052,225.9l5.068,2.927c.293.177.262.477-.085.678l-2.2,1.263a1.286,1.286,0,0,1-1.171.046l-5.06-2.919c-.3-.177-.262-.478.077-.678l2.195-1.263A1.317,1.317,0,0,1,272.052,225.9Z" transform="translate(-61.68 -51.894)" fill="#5793ce"/>
      <path id="Path_119" data-name="Path 119" d="M297.865,115.981,260.05,94.147l.485-2.457,37.815,21.834Z" transform="translate(-59.759 -21.074)" fill="#d4ecff"/>
      <path id="Path_120" data-name="Path 120" d="M283.683,123.338,257.29,108.1l.485-2.457,26.4,15.242Z" transform="translate(-59.125 -24.28)" fill="#d4ecff"/>
      <path id="Path_121" data-name="Path 121" d="M281.505,114.3,258.67,101.117l.485-2.457,22.835,13.185Z" transform="translate(-59.442 -22.676)" fill="#fff"/>
      <path id="Path_122" data-name="Path 122" d="M304.361,127.507l-11.421-6.6.493-2.457,11.414,6.593Z" transform="translate(-67.318 -27.224)" fill="#ff2c9c"/>
      <path id="Path_123" data-name="Path 123" d="M251.411,64.327,239.99,57.735l.485-2.465,11.421,6.6Z" transform="translate(-55.149 -12.703)" fill="#d4ecff"/>
      <path id="Path_124" data-name="Path 124" d="M249.8,71.747,238.38,65.155l.485-2.465,11.422,6.593Z" transform="translate(-54.779 -14.408)" fill="#fff"/>
      <path id="Path_125" data-name="Path 125" d="M322.571,174.649l-11.421-6.593.493-2.457,11.422,6.593Z" transform="translate(-71.504 -38.061)" fill="#d4ecff"/>
      <path id="Path_126" data-name="Path 126" d="M246.581,86.579,235.16,79.987l.485-2.457,11.422,6.593Z" transform="translate(-54.038 -17.819)" fill="#d4ecff"/>
      <path id="Path_127" data-name="Path 127" d="M281.124,90.847a1.425,1.425,0,0,1-2.056.632,1.779,1.779,0,0,1-.732-2.241,1.417,1.417,0,0,1,2.049-.632A1.787,1.787,0,0,1,281.124,90.847Z" transform="translate(-63.928 -20.315)" fill="#ff2c9c"/>
      <path id="Path_128" data-name="Path 128" d="M287.528,94.537a1.417,1.417,0,0,1-2.049.632,1.787,1.787,0,0,1-.77-2.241,1.425,1.425,0,0,1,2.056-.632,1.779,1.779,0,0,1,.762,2.241Z" transform="translate(-65.395 -21.163)" fill="#fff"/>
      <path id="Path_129" data-name="Path 129" d="M293.925,98.267a1.425,1.425,0,0,1-2.056.632,1.787,1.787,0,0,1-.732-2.241,1.417,1.417,0,0,1,2.049-.632,1.787,1.787,0,0,1,.739,2.241Z" transform="translate(-66.871 -22.021)" fill="#d4ecff"/>
      <path id="Path_130" data-name="Path 130" d="M300.314,101.908a1.433,1.433,0,0,1-2.056.639,1.787,1.787,0,0,1-.732-2.249,1.425,1.425,0,0,1,2.049-.632,1.787,1.787,0,0,1,.739,2.241Z" transform="translate(-68.339 -22.858)" fill="#ff2c9c"/>
      <path id="Path_131" data-name="Path 131" d="M342.35,306.212a6.1,6.1,0,0,0-5.537,0L265.4,347.485c-1.54.886-1.54,2.31,0,3.2a6.1,6.1,0,0,0,5.537,0l71.417-41.25C343.882,308.522,343.882,307.09,342.35,306.212Z" transform="translate(-60.722 -70.226)" fill="#173d7a" opacity="0.5"/>
      <path id="Path_132" data-name="Path 132" d="M380.122,277.345h0a.316.316,0,0,0-.331-.146l-4.321.94,1.694,2.9,2.927-3.319A.323.323,0,0,0,380.122,277.345Z" transform="translate(-86.287 -63.709)" fill="#d4ecff"/>
      <path id="Path_133" data-name="Path 133" d="M374.476,279.633a2.164,2.164,0,0,0-1-1.671.7.7,0,0,0-.647-.085,27.672,27.672,0,0,0-14.209,3.8l-.308.185L363.7,291l1.54-1.055a27.564,27.564,0,0,0,8.287-8.587l.716-1.086A.7.7,0,0,0,374.476,279.633Z" transform="translate(-82.343 -63.856)" fill="#5793ce"/>
      <path id="Path_134" data-name="Path 134" d="M364.444,289.674a8.3,8.3,0,0,0-3.8-6.462c-2.079-1.171-3.743-.193-3.728,2.195a8.264,8.264,0,0,0,3.8,6.454C362.789,293.04,364.46,292.062,364.444,289.674Z" transform="translate(-82.023 -64.979)" fill="#d4ecff"/>
      <path id="Path_135" data-name="Path 135" d="M322.038,312.023l31.854-19.847-5.368-9.126L315.7,301.234Z" transform="translate(-72.55 -65.055)" fill="#d4ecff"/>
      <path id="Path_136" data-name="Path 136" d="M322.938,314.487a9.8,9.8,0,0,0-4.482-7.632c-2.457-1.386-4.428-.231-4.405,2.588a9.773,9.773,0,0,0,4.482,7.632C320.989,318.461,322.961,317.306,322.938,314.487Z" transform="translate(-72.17 -70.392)" fill="#d4ecff"/>
      <path id="Path_137" data-name="Path 137" d="M320.578,315.869a9.8,9.8,0,0,0-4.482-7.625c-2.457-1.394-4.428-.231-4.405,2.588a9.766,9.766,0,0,0,4.482,7.625C318.629,319.85,320.6,318.7,320.578,315.869Z" transform="translate(-71.628 -70.71)" fill="#d4ecff"/>
      <rect id="Rectangle_20" data-name="Rectangle 20" width="48.874" height="12.515" transform="matrix(0.862, -0.507, 0.507, 0.862, 199.206, 262)" fill="#d4ecff"/>
      <path id="Path_138" data-name="Path 138" d="M265.868,348.029a9.781,9.781,0,0,0-4.482-7.625c-2.457-1.394-4.428-.231-4.405,2.588a9.766,9.766,0,0,0,4.482,7.625C263.927,352.01,265.891,350.855,265.868,348.029Z" transform="translate(-59.053 -78.102)" fill="#d4ecff"/>
      <path id="Path_139" data-name="Path 139" d="M264.745,347.809a6.431,6.431,0,0,0-3.027-4.621c-1.54-.893-2.773-.27-2.68,1.394a6.477,6.477,0,0,0,3.034,4.621C263.629,350.1,264.846,349.473,264.745,347.809Z" transform="translate(-59.526 -78.784)" fill="#396caa"/>
      <path id="Path_140" data-name="Path 140" d="M323.879,314.066a9.766,9.766,0,0,0-4.482-7.625,3.45,3.45,0,0,0-2.626-.493c.77-.832,2.1-.932,3.589-.085a9.765,9.765,0,0,1,4.482,7.625c0,1.687-.685,2.773-1.771,3.081a3.5,3.5,0,0,0,.809-2.5Z" transform="translate(-72.795 -70.164)" fill="#fff"/>
      <path id="Path_141" data-name="Path 141" d="M323.017,314.236a9.766,9.766,0,0,0-4.482-7.625,3.049,3.049,0,0,0-3.127-.285l-2.388,1.4,1.132,1.933a10.012,10.012,0,0,0,4.066,6.931l1.14,1.941,2.387-1.409h0A3.178,3.178,0,0,0,323.017,314.236Z" transform="translate(-71.934 -70.334)" fill="#5793ce"/>
      <path id="Path_142" data-name="Path 142" d="M320.248,316.059a9.773,9.773,0,0,0-4.482-7.625c-2.457-1.394-4.428-.231-4.405,2.588a9.812,9.812,0,0,0,4.482,7.632C318.3,320.04,320.271,318.885,320.248,316.059Z" transform="translate(-71.552 -70.754)" fill="#d4ecff"/>
      <path id="Path_143" data-name="Path 143" d="M260,349.549l-2.742-4.659-8.926,5.252a2.7,2.7,0,0,0-.963,3.7h0a2.7,2.7,0,0,0,3.7.955Z" transform="translate(-56.759 -79.269)" fill="#ad71f0"/>
      <path id="Path_144" data-name="Path 144" d="M263.445,348.27a4.236,4.236,0,0,0-1.933-3.3c-1.063-.6-1.91-.1-1.9,1.117a4.236,4.236,0,0,0,1.933,3.3C262.606,349.988,263.453,349.487,263.445,348.27Z" transform="translate(-59.658 -79.229)" fill="#ff2c9c"/>
      <path id="Path_145" data-name="Path 145" d="M273.877,324l-1.34-.77a2.834,2.834,0,0,0-2.865.308l-4.621,2.7a3.5,3.5,0,0,0-1.54,2.742v2.31a1.864,1.864,0,0,1-.462,1.155l.177,1.063-1.148-.655h0a.57.57,0,0,1-.27-.554v-2.311a7.3,7.3,0,0,1,3.242-5.73l4.621-2.7c1.54-.9,2.981-1.055,4.074-.439l1.34.77a2.85,2.85,0,0,0,2.865-.308L296.435,310.7a.593.593,0,0,1,.608-.062h0l1.148.655-.978.377a1.925,1.925,0,0,1-.77,1.009l-18.484,10.875C276.419,324.46,274.971,324.614,273.877,324Z" transform="translate(-60.162 -71.384)" fill="#5793ce"/>
      <path id="Path_146" data-name="Path 146" d="M274.046,324.1a2.85,2.85,0,0,0-2.865.308l-4.621,2.7a3.458,3.458,0,0,0-1.54,2.75v2.31a1.9,1.9,0,0,1-.847,1.486c-.47.277-.855.062-.863-.485v-2.31a7.293,7.293,0,0,1,3.25-5.73l4.621-2.7c1.54-.9,2.98-1.055,4.074-.439l1.332.77a2.834,2.834,0,0,0,2.865-.308l18.484-10.875c.47-.277.855-.054.855.493a1.871,1.871,0,0,1-.839,1.486l-18.484,10.875c-1.54.9-2.98,1.055-4.074.439Z" transform="translate(-60.508 -71.584)" fill="#5793ce"/>
      <path id="Path_147" data-name="Path 147" d="M265.47,335.658v2.357a1.394,1.394,0,0,0,.069-.424v-2.31a1.661,1.661,0,0,1,0-.2,3.023,3.023,0,0,0-.069.578Z" transform="translate(-61.005 -77.014)" fill="#fff"/>
      <path id="Path_148" data-name="Path 148" d="M43.18,297.38a8.873,8.873,0,0,0,1.117,2.357c-5.869,4.937-5.006,11.737,2.6,16.127,8.572,4.952,22.481,4.952,31.061,0,6.323-3.651,7.979-8.972,4.975-13.509a12.368,12.368,0,0,0,2.141-2.31c5.468,5.306,4.86,12.122-1.818,17.1l7.124,4.167c2.68-.955,5.992-.886,8.033.293l25.87,14.934c2.449,1.409,2.141,3.851-.685,5.514s-7.1,1.8-9.55.393l-25.87-14.933c-1.856-1.071-2.118-2.749-.909-4.213l-7.178-4.205c-10.359,5.445-26.378,5.291-36.39-.485C33.576,312.76,33.407,303.349,43.18,297.38Z" transform="translate(-8.258 -68.349)" fill="#173d7a" opacity="0.5"/>
      <path id="Path_149" data-name="Path 149" d="M46.968,278.673c9.35-5.391,24.507-5.391,33.887,0,3.851,2.241,6.161,5.052,6.8,7.963-.585,2.572-2.418,5.068-5.507,7.155a19.874,19.874,0,0,0-2.611-1.8c-9.35-5.391-24.507-5.391-33.887,0-.462.27-.893.547-1.309.824a11.345,11.345,0,0,1-4.182-6.161C40.861,283.726,43.117,280.915,46.968,278.673Z" transform="translate(-9.22 -63.12)" fill="#d4ecff" opacity="0.5"/>
      <path id="Path_150" data-name="Path 150" d="M87.93,289.624l-3.658-4.76-11.09-5.16-9.573-.847-11.19,1.371-7.763,4.013-4.921,3.165-.893-5.152,1.664-5.938s4.244-2.8,4.5-3.081,9.92-3.72,9.92-3.72l9.658-.655,7.763.978,7.894,2.349L85.45,275.9l3.912,4.952.439,6.2Z" transform="translate(-8.917 -61.794)" fill="#994af0"/>
      <path id="Path_151" data-name="Path 151" d="M35.33,287.88v10.027l2.68-4.344Z" transform="translate(-8.11 -66.166)" fill="#994af0"/>
      <path id="Path_152" data-name="Path 152" d="M80.393,286.732c-9.357-5.391-24.514-5.391-33.887,0a14.926,14.926,0,0,0-6.046,5.884c-.824-.77-1.887-1.317-2.31-2.311a18.893,18.893,0,0,1,5.869-5.014c10.728-6.2,28.134-6.2,38.87,0a19.562,19.562,0,0,1,5.507,4.536,8.287,8.287,0,0,1-1.964,2.8A14.849,14.849,0,0,0,80.393,286.732Z" transform="translate(-8.758 -64.502)" fill="#d3008d"/>
      <path id="Path_153" data-name="Path 153" d="M46.971,278.673c9.35-5.391,24.507-5.391,33.887,0,3.851,2.241,6.161,5.052,6.8,7.963-.639,2.911-2.95,5.73-6.8,7.971-9.35,5.391-24.507,5.391-33.887,0-3.851-2.241-6.161-5.052-6.8-7.964C40.863,283.726,43.12,280.915,46.971,278.673Z" transform="translate(-9.222 -63.12)" fill="#d4ecff" opacity="0.5"/>
      <path id="Path_154" data-name="Path 154" d="M37.519,291.933a3.273,3.273,0,0,0,.839,1.086v-.1l2.48,1.479,3.042,2.827,4.22,1.864,5.822,2.095,5.183,1.217,7.132.3,4.621-.477,9.134-2.4,5.953-5.26c-.046-.1-.085-.208-.139-.316a8.286,8.286,0,0,0,1.964-2.8c.162.2.308.408.454.608l2.087-4.344v10.4c0,4.066-2.68,8.133-8.048,11.237-10.736,6.161-28.142,6.161-38.878,0C35.224,304.648,33.276,297.717,37.519,291.933Z" transform="translate(-8.112 -66.129)" fill="#994af0"/>
      <path id="Path_155" data-name="Path 155" d="M98.26,296.469l2.141-1.9c-.046-.1-.085-.208-.139-.316a8.286,8.286,0,0,0,1.964-2.8c.162.2.308.408.454.608l2.087-4.344v10.4c0,3.658-2.172,7.309-6.508,10.266Z" transform="translate(-22.574 -66.129)" fill="#994af0"/>
      <path id="Path_156" data-name="Path 156" d="M43.38,294.366c10.736,6.2,28.142,6.2,38.878,0s10.736-16.25,0-22.443-28.142-6.2-38.87,0S32.652,288.166,43.38,294.366Zm2.48-20.995c9.35-5.391,24.507-5.391,33.887,0s9.35,14.148,0,19.547-24.507,5.391-33.887,0S36.541,278.77,45.86,273.371Z" transform="translate(-8.112 -61.43)" fill="#994af0"/>
      <path id="Path_157" data-name="Path 157" d="M114.449,314.565,99.216,305.7l-2.026,3.281,15.3,8.919Z" transform="translate(-22.328 -70.261)" fill="#d4ecff"/>
      <path id="Path_158" data-name="Path 158" d="M116.56,319.635c0,.87.616,1.225,1.363.77a3.019,3.019,0,0,0,1.371-2.364c0-.87-.616-1.225-1.371-.77a3.027,3.027,0,0,0-1.363,2.364Z" transform="translate(-26.78 -72.875)" fill="#983be9"/>
      <path id="Path_159" data-name="Path 159" d="M116.56,319.635c0,.87.616,1.225,1.363.77a3.019,3.019,0,0,0,1.371-2.364c0-.87-.616-1.225-1.371-.77a3.027,3.027,0,0,0-1.363,2.364Z" transform="translate(-26.78 -72.875)" fill="#983be9"/>
      <path id="Path_160" data-name="Path 160" d="M96.77,308.125c0,.87.616,1.217,1.371.77a3.019,3.019,0,0,0,1.363-2.364c0-.87-.608-1.225-1.363-.77a3.027,3.027,0,0,0-1.371,2.364Z" transform="translate(-22.231 -70.23)" fill="#d4ecff"/>
      <path id="Path_161" data-name="Path 161" d="M106.826,317.959a12.993,12.993,0,0,1,5.876-10.2c1.664-.955,3.158-1.024,4.228-.362h0l32.208,18.715-8.418,14.333-31.869-18.561a2.673,2.673,0,0,1-.608-.354h0a4.375,4.375,0,0,1-1.417-3.574Z" transform="translate(-24.539 -70.552)" fill="#5793ce"/>
      <path id="Path_162" data-name="Path 162" d="M147.991,330.1,111.94,309.3a9.567,9.567,0,0,1,1.941-1.54c1.664-.955,3.158-1.024,4.228-.362h0l32.208,18.715Z" transform="translate(-25.718 -70.552)" fill="#d4ecff"/>
      <ellipse id="Ellipse_1" data-name="Ellipse 1" cx="8.31" cy="4.798" rx="8.31" ry="4.798" transform="translate(112.085 267.535) rotate(-60)" fill="#d4ecff"/>
      <path id="Path_163" data-name="Path 163" d="M154.87,342.141a3.851,3.851,0,1,0,3.851-3.851,3.851,3.851,0,0,0-3.851,3.851Z" transform="translate(-35.585 -77.752)" fill="#5793ce"/>
      <circle id="Ellipse_2" data-name="Ellipse 2" cx="1.132" cy="1.132" r="1.132" transform="translate(123.814 261.848)" fill="#fff"/>
      <path id="Path_164" data-name="Path 164" d="M154.006,331.762c1.733-1,3.289-1.024,4.367-.27a4.281,4.281,0,0,0-3.936.516,12.985,12.985,0,0,0-5.876,10.182,4.2,4.2,0,0,0,1.54,3.658c-1.194-.555-1.941-1.91-1.941-3.912a12.97,12.97,0,0,1,5.846-10.174Z" transform="translate(-34.043 -76.068)" fill="#fff"/>
      <path id="Path_165" data-name="Path 165" d="M46.91,273.983c9.35-5.391,24.507-5.391,33.887,0,4.867,2.811,7.193,6.531,6.993,10.212-.185-3.389-2.518-6.747-6.993-9.334-9.357-5.391-24.514-5.391-33.887,0-4.482,2.588-6.808,5.946-6.993,9.334C39.748,280.514,42.074,276.794,46.91,273.983Z" transform="translate(-9.162 -62.042)" fill="#fff"/>
      <path id="Path_166" data-name="Path 166" d="M43.382,299.232c10.736,6.2,28.142,6.2,38.878,0,5.175-2.988,7.848-6.87,8.033-10.782.2,4.205-2.472,8.472-8.033,11.66-10.736,6.2-28.142,6.2-38.878,0-5.561-3.212-8.233-7.455-8.025-11.66C35.541,292.362,38.214,296.244,43.382,299.232Z" transform="translate(-8.113 -66.297)" fill="#fff"/>
      <path id="Path_167" data-name="Path 167" d="M161.849,275.2s-2.888-1.456-4.659.709-4.313,7.293-4.39,10.782,2.734,3.227,4.413,2.4,6.562-7.91,6.854-9.3a4.867,4.867,0,0,0-.816-3.643C162.781,275.782,161.849,275.2,161.849,275.2Z" transform="translate(-35.108 -63.14)" fill="#aa005a"/>
      <path id="Path_168" data-name="Path 168" d="M163.737,274.231l.131,2.988a1.687,1.687,0,0,1-.847,1.54,3.319,3.319,0,0,1-2.226.347c-2.18-.347-2.372-.97-2.526-3.959S163.737,274.231,163.737,274.231Z" transform="translate(-36.365 -62.868)" fill="#d4ecff"/>
      <path id="Path_169" data-name="Path 169" d="M148.13,267.727s-2.888-1.456-4.621.716-4.305,7.286-4.39,10.744,2.742,3.227,4.413,2.4,6.562-7.91,6.862-9.3a4.83,4.83,0,0,0-.824-3.643A15.86,15.86,0,0,0,148.13,267.727Z" transform="translate(-31.964 -61.424)" fill="#aa005a"/>
      <path id="Path_170" data-name="Path 170" d="M150.009,266.791l.131,2.988a1.687,1.687,0,0,1-.839,1.54,3.343,3.343,0,0,1-2.233.347c-2.172-.347-2.364-.97-2.518-3.959S150.009,266.791,150.009,266.791Z" transform="translate(-33.212 -61.158)" fill="#d4ecff"/>
      <path id="Path_171" data-name="Path 171" d="M174.42,193.951c-.855-13.909-15.064,2.041-15.064,2.041l-9.719,9.535-8.757,9.619a8.626,8.626,0,0,0-2.172,6.931l3.535,26.956a2.665,2.665,0,0,0,2.665,2.31,9.862,9.862,0,0,0,1.309-.116,3.3,3.3,0,0,0,2.927-3.5l-.647-25.223,18.384-11.09S175.275,207.852,174.42,193.951Z" transform="translate(-31.853 -43.268)" fill="#173d7a"/>
      <path id="Path_172" data-name="Path 172" d="M188.14,200.831c-.855-13.909-15.057,2.041-15.057,2.041l-9.727,9.535-8.757,9.619a8.618,8.618,0,0,0-2.172,6.931l3.543,26.956a2.665,2.665,0,0,0,2.657,2.31,9.745,9.745,0,0,0,1.309-.116,3.289,3.289,0,0,0,2.927-3.5l-.624-24.5,18.338-11.807S189,214.732,188.14,200.831Z" transform="translate(-35.006 -44.85)" fill="#173d7a"/>
      <path id="Path_173" data-name="Path 173" d="M181.71,144.1c10.782,4.467,10.551,10.836,10.551,10.836s-2.1,23.336-1.386,38.924c.3,6.516-34.619,7.016-29.412-10.366,6.161-20.5,3.851-37.091,6.716-39.594S178.922,142.944,181.71,144.1Z" transform="translate(-36.978 -32.764)" fill="#ad71f0"/>
      <path id="Path_174" data-name="Path 174" d="M189.17,150.225c-.562,2.187-3.427,3.342-6.4,2.58s-4.921-3.165-4.359-5.345,3.427-3.342,6.4-2.58S189.733,148.038,189.17,150.225Z" transform="translate(-40.973 -33.245)" fill="#ffc2b0"/>
      <path id="Path_175" data-name="Path 175" d="M184.265,154.971l-1.979,2.149a1.279,1.279,0,0,0-.339,1.032l1.363,11.783a1.279,1.279,0,0,1-.254.924l-4.267,5.576a.377.377,0,0,1-.67-.115l-2.311-7.3a1.279,1.279,0,0,1,0-.847l4.082-10.7a1.348,1.348,0,0,0,.054-.77l-.593-2.834Z" transform="translate(-40.381 -35.365)" fill="#fff"/>
      <path id="Path_176" data-name="Path 176" d="M184.461,153.4a7.964,7.964,0,0,1-1.972-.254,7.147,7.147,0,0,1-3.774-2.31,4.128,4.128,0,0,1-.955-3.658c.639-2.457,3.782-3.782,7.032-2.942s5.391,3.512,4.729,5.969a4.12,4.12,0,0,1-2.6,2.742,6.631,6.631,0,0,1-2.457.454ZM182.82,145c-2,0-3.674.932-4.059,2.426a3.135,3.135,0,0,0,.77,2.757,6.523,6.523,0,0,0,7.016,1.8,3.127,3.127,0,0,0,1.987-2.041h0c.493-1.91-1.294-4.028-3.989-4.721A7.047,7.047,0,0,0,182.82,145Z" transform="translate(-40.823 -33.092)" fill="#fff"/>
      <path id="Path_177" data-name="Path 177" d="M182.272,143.291a26.8,26.8,0,0,1-.092,3.851c-.054,1.071,3.7,2.072,4.675,1.1s.578-1.979.809-5.63S182.272,143.291,182.272,143.291Z" transform="translate(-41.861 -32.441)" fill="#ffc2b0"/>
      <path id="Path_178" data-name="Path 178" d="M187.664,143.05s-.924,3.381-5.484,4.683l.069-3.081Z" transform="translate(-41.862 -32.878)" fill="#ea9c92"/>
      <circle id="Ellipse_3" data-name="Ellipse 3" cx="8.287" cy="8.287" r="8.287" transform="translate(130.581 109.616) rotate(-75.59)" fill="#ffc2b0"/>
      <path id="Path_179" data-name="Path 179" d="M182.058,134.4s-4.567,1.949-7.7,1.972-2.465-2.619-2.465-2.619l9.381-1.355Z" transform="translate(-39.483 -30.43)" fill="#ea9c92"/>
      <path id="Path_180" data-name="Path 180" d="M172.3,131.844s3.982-1.687,7.463-.978a3.62,3.62,0,0,1,2.11,1.248,1.24,1.24,0,0,0,.639.462c.616.139,1.633-2.426,2.834-2.48s2,.77,1.017,2.372-.655,3.342-.2,3.6,6.069-3.666,1.825-12.076-15.827-3.643-17.506-1.941c0,0-1.764,1.54-3.2.169C167.289,122.217,165.679,134.277,172.3,131.844Z" transform="translate(-38.399 -27.386)" fill="#384d98"/>
      <path id="Path_181" data-name="Path 181" d="M189.654,179.7v6.338a2.565,2.565,0,0,1-.839,1.895L175.86,199.746,177.331,202l17.891-11.73a3.527,3.527,0,0,0,1.417-2.457l1.217-11.7Z" transform="translate(-40.409 -40.477)" fill="#ffc2b0"/>
      <path id="Path_182" data-name="Path 182" d="M198.615,154.53s3.928,5.915,5.391,21.472c0,0-6.716,2.172-10.528.94S198.615,154.53,198.615,154.53Z" transform="translate(-44.241 -35.517)" fill="#ad71f0"/>
      <path id="Path_183" data-name="Path 183" d="M192.355,164.24a108.955,108.955,0,0,0-1.625,12.107,2.465,2.465,0,0,0,1.625,2.38h0Z" transform="translate(-43.826 -37.748)" fill="#994af0"/>
      <path id="Path_184" data-name="Path 184" d="M176.987,214.043l-2.857-.377-18.484-10.674a2.58,2.58,0,0,0-2.31.092l-13.093,7.563-1.733-.231v1.725h0a.662.662,0,0,0,.4.608l20.948,12.092a2.557,2.557,0,0,0,2.31-.092l14.263-8.233a.924.924,0,0,0,.562-.77h0Z" transform="translate(-31.825 -46.602)" fill="#5793ce"/>
      <path id="Path_185" data-name="Path 185" d="M163.1,208.42l-1.317-.77H147.357l-7.124,4.12-1.733-.231v1.725h0a.662.662,0,0,0,.4.608l20.948,12.092a2.1,2.1,0,0,0,1.186.223Z" transform="translate(-31.822 -47.726)" fill="#396caa"/>
      <path id="Path_186" data-name="Path 186" d="M139.27,212.808l-.77-.108v1.725h0a.662.662,0,0,0,.4.608l.37.216Z" transform="translate(-31.822 -48.886)" fill="#5793ce"/>
      <path id="Path_187" data-name="Path 187" d="M166.49,230.648a2.65,2.65,0,0,0,1.964-.123V227.59H166.49Z" transform="translate(-38.255 -52.309)" fill="#5793ce"/>
      <path id="Path_188" data-name="Path 188" d="M159.844,222.638l-20.964-12.1c-.593-.339-.524-.94.162-1.332l14.263-8.233a2.557,2.557,0,0,1,2.31-.092l20.948,12.092c.593.339.524.94-.162,1.332l-14.263,8.233A2.565,2.565,0,0,1,159.844,222.638Z" transform="translate(-31.817 -46.116)" fill="#fff"/>
      <path id="Path_189" data-name="Path 189" d="M160.462,222.123l-17.421-10.058c-.493-.285-.431-.77.139-1.109l7.64-4.3a2.133,2.133,0,0,1,1.925-.085l17.421,10.058c.493.285.431.77-.139,1.109l-7.648,4.3A2.118,2.118,0,0,1,160.462,222.123Z" transform="translate(-32.789 -47.435)" fill="#d4ecff"/>
      <path id="Path_190" data-name="Path 190" d="M158.7,200.336l-.216,1.448a10.505,10.505,0,0,0,.1,3.7l.254,1.278a1.794,1.794,0,0,0,1.432,1.4h0a.986.986,0,0,0,1.163-.855l.347-3.081s.77,1.04,1.171,1.04-.431-3.081-1.294-4.844S158.7,200.336,158.7,200.336Z" transform="translate(-36.388 -45.88)" fill="#ffc2b0"/>
      <path id="Path_191" data-name="Path 191" d="M165.475,169.427l-2.241,4.444a8.788,8.788,0,0,0-.924,3.381l-.978,15.218-2.957-.077-1.34-17.082a6.353,6.353,0,0,1,.077-1.579l1.54-8.672Z" transform="translate(-36.078 -37.937)" fill="#ffc2b0"/>
      <path id="Path_192" data-name="Path 192" d="M158.613,221.092l-1.756-2.31-18.484-10.7a2.565,2.565,0,0,1-1.071-2.049V190.909l-1.063-1.386,1-.578h0a.678.678,0,0,1,.724.046L158.9,201.106a2.58,2.58,0,0,1,1.071,2.056v16.466a.932.932,0,0,1-.393.878h0Z" transform="translate(-31.303 -43.407)" fill="#173d7a"/>
      <path id="Path_193" data-name="Path 193" d="M145.851,212.424l-1.317-.77-7.2-12.515v-8.21l-1.063-1.386,1-.578h0a.678.678,0,0,1,.724.046l20.933,12.115a2.141,2.141,0,0,1,.77.924Z" transform="translate(-31.31 -43.412)" fill="#396caa"/>
      <path id="Path_194" data-name="Path 194" d="M136.75,190.159l-.47-.616,1-.578h0a.678.678,0,0,1,.724.046l.37.208Z" transform="translate(-31.312 -43.412)" fill="#5793ce"/>
      <path id="Path_195" data-name="Path 195" d="M165.356,205a2.673,2.673,0,0,1,.87,1.764l-2.041,1.178-.986-1.7Z" transform="translate(-37.499 -47.117)" fill="#274f89"/>
      <path id="Path_196" data-name="Path 196" d="M157.841,201.874,136.9,189.76c-.585-.347-1.071,0-1.071.77V207a2.58,2.58,0,0,0,1.071,2.056l20.933,12.115c.593.347,1.071,0,1.071-.77V203.931A2.6,2.6,0,0,0,157.841,201.874Z" transform="translate(-31.209 -43.583)" fill="#5793ce"/>
      <path id="Path_197" data-name="Path 197" d="M175.71,209.009l-.339.7a4.621,4.621,0,0,1-1.748,1.933l-2.079,1.286a2.049,2.049,0,0,1-2.118.046l-.077-.039a1.255,1.255,0,0,1-.169-1.925l2.172-2.233s-1.225.932-1.54.562,1.178-1.625,2.31-1.671a4.4,4.4,0,0,0,2.172-.909Z" transform="translate(-38.788 -47.521)" fill="#ffc2b0"/>
      <path id="Path_198" data-name="Path 198" d="M167.283,144.25s-7.971,8.672-11.183,16.62a16.274,16.274,0,0,0,9.4,6.831C172.2,169.627,167.283,144.25,167.283,144.25Z" transform="translate(-35.867 -33.154)" fill="#ad71f0"/>
      <path id="Path_199" data-name="Path 199" d="M165.814,170.277,167.1,157.8l-3.081,11.683A18.526,18.526,0,0,0,165.814,170.277Z" transform="translate(-37.688 -36.268)" fill="#994af0"/>
      <path id="Path_200" data-name="Path 200" d="M177.721,141.825l-2.141-.585a5.168,5.168,0,0,0,2.518,2.018c1.486.408,1.725-.855,1.725-.855Z" transform="translate(-40.345 -32.462)" fill="#fff"/>
      <circle id="Ellipse_4" data-name="Ellipse 4" cx="1.194" cy="1.194" r="1.194" transform="translate(146.426 104.727)" fill="#fff"/>
      <path id="Path_201" data-name="Path 201" d="M32.918,236.517c-6.816,3.936-17.868,3.936-24.684,0s-6.816-10.312,0-14.248,17.868-3.936,24.684,0S39.734,232.582,32.918,236.517Z" transform="translate(-0.707 -50.407)" fill="#173d7a" opacity="0.5"/>
      <path id="Path_202" data-name="Path 202" d="M39.71,217.214v-5.553H38.662a12.677,12.677,0,0,0-4.775-4.475c-7.756-4.482-20.325-4.482-28.08,0a12.646,12.646,0,0,0-4.752,4.475H0v5.545H0c0,2.942,1.925,5.892,5.815,8.141,7.756,4.475,20.325,4.475,28.08,0C37.776,223.083,39.71,220.133,39.71,217.214Z" transform="translate(0.01 -46.846)" fill="#ad71f0"/>
      <ellipse id="Ellipse_5" data-name="Ellipse 5" cx="19.855" cy="11.468" rx="19.855" ry="11.468" transform="translate(0.01 153.324)" fill="#994beb"/>
      <path id="Path_203" data-name="Path 203" d="M33.884,222.188c-7.756,4.475-20.325,4.475-28.08,0C2.1,220.039.182,217.251,0,214.44c-.169,3.081,1.748,6.161,5.784,8.472,7.756,4.482,20.325,4.482,28.08,0,4.043-2.31,5.953-5.391,5.784-8.472C39.522,217.251,37.612,220.039,33.884,222.188Z" transform="translate(0.013 -49.286)" fill="#fff"/>
      <path id="Path_204" data-name="Path 204" d="M13.2,216.133a.87.87,0,0,1-.524-.77v-7.471c0-.57.77-1.032,1.794-1.032s1.779.47,1.779,1.04v6.161l17.976-2.2c.963-.116,1.918.239,2.118.77s-.408,1.109-1.379,1.225l-20.132,2.465a2.772,2.772,0,0,1-1.54-.208Z" transform="translate(-2.904 -47.544)" fill="#fff"/>
      <path id="Path_205" data-name="Path 205" d="M182.934,64.592,153.321,47.487a1.779,1.779,0,0,0-1.679-.123h0l-3.535,1.656,2.1.77-4.274,21.565a4.5,4.5,0,0,0,1.756,4.552L176,92.226l-.5,2.534,3.566-1.671h0a2.588,2.588,0,0,0,1.278-1.9l4.367-22.027A4.465,4.465,0,0,0,182.934,64.592Z" transform="translate(-33.512 -10.85)" fill="#994af0"/>
      <path id="Path_206" data-name="Path 206" d="M172.667,95.168,143.032,78.062a4.51,4.51,0,0,1-1.756-4.552l4.39-22.034c.347-1.756,1.694-2.565,3.011-1.8L178.3,66.8a4.522,4.522,0,0,1,1.756,4.559l-4.351,22C175.332,95.122,173.984,95.93,172.667,95.168Z" transform="translate(-32.441 -11.351)" fill="#2c84fd"/>
      <path id="Path_207" data-name="Path 207" d="M180.814,66.438,151.178,49.333a1.771,1.771,0,0,0-1.949,0,1.879,1.879,0,0,1,1.271.246l29.644,17.144a4.522,4.522,0,0,1,1.756,4.559l-4.351,22a2.719,2.719,0,0,1-1.071,1.787,2.311,2.311,0,0,0,1.741-2.049l4.367-22.034A4.429,4.429,0,0,0,180.814,66.438Z" transform="translate(-34.288 -11.271)" fill="#fff"/>
      <path id="Path_208" data-name="Path 208" d="M158.794,75.637a1.54,1.54,0,0,1-2.457,1.155,3.473,3.473,0,0,1-1.54-3.458,1.54,1.54,0,0,1,2.457-1.155,3.458,3.458,0,0,1,1.54,3.458Z" transform="translate(-35.558 -16.519)" fill="#fff"/>
      <ellipse id="Ellipse_6" data-name="Ellipse 6" cx="1.918" cy="2.68" rx="1.918" ry="2.68" transform="translate(124.445 59.73) rotate(-22.8)" fill="#fff"/>
      <path id="Path_209" data-name="Path 209" d="M174.484,84.717a1.54,1.54,0,0,1-2.457,1.155,3.466,3.466,0,0,1-1.54-3.458,1.54,1.54,0,0,1,2.457-1.155,3.473,3.473,0,0,1,1.54,3.458Z" transform="translate(-39.164 -18.606)" fill="#fff"/>
      <path id="Path_210" data-name="Path 210" d="M333.047,17.382,303.4.277a1.779,1.779,0,0,0-1.679-.123h0L298.2,1.81l2.1.77-4.274,21.565a4.51,4.51,0,0,0,1.756,4.552l28.327,16.351-.5,2.534,3.566-1.671h0a2.58,2.58,0,0,0,1.271-1.9l4.367-22.027A4.582,4.582,0,0,0,333.047,17.382Z" transform="translate(-68.009 0)" fill="#5793ce"/>
      <path id="Path_211" data-name="Path 211" d="M322.747,47.958,293.112,30.852a4.51,4.51,0,0,1-1.756-4.552l4.367-22.034c.347-1.756,1.694-2.565,3.011-1.8L328.37,19.57a4.522,4.522,0,0,1,1.756,4.559l-4.367,22.027C325.412,47.912,324.064,48.72,322.747,47.958Z" transform="translate(-66.935 -0.5)" fill="#d4ecff"/>
      <path id="Path_212" data-name="Path 212" d="M330.894,19.228,301.258,2.123a1.771,1.771,0,0,0-1.949,0,1.841,1.841,0,0,1,1.271.246l29.636,17.105a4.522,4.522,0,0,1,1.756,4.559l-4.367,22.027a2.7,2.7,0,0,1-1.071,1.787,2.31,2.31,0,0,0,1.748-2.049l4.367-22.034A4.527,4.527,0,0,0,330.894,19.228Z" transform="translate(-68.783 -0.421)" fill="#fff"/>
      <path id="Path_213" data-name="Path 213" d="M308.794,28.427a1.54,1.54,0,0,1-2.457,1.155,3.473,3.473,0,0,1-1.54-3.458,1.54,1.54,0,0,1,2.457-1.155,3.466,3.466,0,0,1,1.54,3.458Z" transform="translate(-70.034 -5.669)" fill="#fff"/>
      <path id="Path_214" data-name="Path 214" d="M316.694,32.967a1.54,1.54,0,0,1-2.457,1.155,3.481,3.481,0,0,1-1.54-3.458,1.54,1.54,0,0,1,2.457-1.155A3.458,3.458,0,0,1,316.694,32.967Z" transform="translate(-71.85 -6.712)" fill="#fff"/>
      <path id="Path_215" data-name="Path 215" d="M324.554,37.507a1.54,1.54,0,0,1-2.457,1.155,3.473,3.473,0,0,1-1.54-3.458,1.54,1.54,0,0,1,2.457-1.155A3.466,3.466,0,0,1,324.554,37.507Z" transform="translate(-73.656 -7.756)" fill="#fff"/>
    </g>
  </g>
</svg>
