<?xml version="1.0" encoding="UTF-8"?>
<!DOCTYPE svg PUBLIC "-//W3C//DTD SVG 1.1//EN" "http://www.w3.org/Graphics/SVG/1.1/DTD/svg11.dtd">
<!-- Creator: CorelDRAW 2017 -->
<svg xmlns="http://www.w3.org/2000/svg" xml:space="preserve" width="494px" height="529px" version="1.1" style="shape-rendering:geometricPrecision; text-rendering:geometricPrecision; image-rendering:optimizeQuality; fill-rule:evenodd; clip-rule:evenodd"
viewBox="0 0 494 528.33"
 xmlns:xlink="http://www.w3.org/1999/xlink">
 <defs>
  <style type="text/css">
   <![CDATA[
    .fil0 {fill:#6C26B3}
    .fil4 {fill:#FEFEFE;fill-rule:nonzero}
    .fil14 {fill:#F08CA3;fill-rule:nonzero}
    .fil10 {fill:#EB5D78;fill-rule:nonzero}
    .fil15 {fill:#FAFBFB;fill-rule:nonzero}
    .fil2 {fill:#EFEFF8;fill-rule:nonzero}
    .fil7 {fill:#B2AED7;fill-rule:nonzero}
    .fil20 {fill:#A4A2D0;fill-rule:nonzero}
    .fil19 {fill:#7C7EBB;fill-rule:nonzero}
    .fil11 {fill:#40B8EA;fill-rule:nonzero}
    .fil12 {fill:#3EA8DF;fill-rule:nonzero}
    .fil16 {fill:#5D61A8;fill-rule:nonzero}
    .fil17 {fill:#5156A0;fill-rule:nonzero}
    .fil5 {fill:#43519D;fill-rule:nonzero}
    .fil8 {fill:#33386B;fill-rule:nonzero}
    .fil6 {fill:#33396A;fill-rule:nonzero}
    .fil3 {fill:#2F3259;fill-rule:nonzero}
    .fil1 {fill:#6C26B3;fill-rule:nonzero}
    .fil18 {fill:#6F30AD;fill-rule:nonzero}
    .fil13 {fill:#F18872;fill-rule:nonzero}
    .fil9 {fill:#F5AD85;fill-rule:nonzero}
   ]]>
  </style>
 </defs>
 <g id="Layer_x0020_1">
  <metadata id="CorelCorpID_0Corel-Layer"/>
  <polygon class="fil0" points="427.34,177.51 366.45,177.51 366.45,246.71 427.34,246.71 "/>
  <path class="fil1" d="M72.65 435.59l348.7 0c15.49,0 28.05,-12.56 28.05,-28.05l0 -299.21c0,-15.49 -12.56,-28.05 -28.05,-28.05l-348.7 0c-15.49,0 -28.04,12.56 -28.04,28.05l0 299.21c0,15.49 12.55,28.05 28.04,28.05zm352.45 -192.01l-37.37 0 -6.11 -24.94 -7.23 -29.59 34.25 0 4.08 11.82 14.74 42.71 -2.36 0z"/>
  <path class="fil2" d="M81.85 65.21c0,-3.5 -2.84,-6.34 -6.35,-6.34 -3.5,0 -6.34,2.84 -6.34,6.34 0,3.51 2.84,6.34 6.34,6.34 3.51,0 6.35,-2.83 6.35,-6.34z"/>
  <path class="fil2" d="M98.86 65.21c0,-3.5 -2.84,-6.34 -6.35,-6.34 -3.5,0 -6.34,2.84 -6.34,6.34 0,3.51 2.84,6.34 6.34,6.34 3.51,0 6.35,-2.83 6.35,-6.34z"/>
  <path class="fil2" d="M115.87 65.21c0,-3.5 -2.84,-6.34 -6.34,-6.34 -3.5,0 -6.34,2.84 -6.34,6.34 0,3.51 2.84,6.34 6.34,6.34 3.5,0 6.34,-2.83 6.34,-6.34z"/>
  <path class="fil2" d="M467.49 272.14c0,-3.5 -2.84,-6.34 -6.34,-6.34 -3.51,0 -6.35,2.84 -6.35,6.34 0,3.51 2.84,6.34 6.35,6.34 3.5,0 6.34,-2.83 6.34,-6.34z"/>
  <path class="fil2" d="M467.49 289.49c0,-3.5 -2.84,-6.34 -6.34,-6.34 -3.51,0 -6.35,2.84 -6.35,6.34 0,3.51 2.84,6.35 6.35,6.35 3.5,0 6.34,-2.84 6.34,-6.35z"/>
  <path class="fil2" d="M467.49 306.84c0,-3.5 -2.84,-6.34 -6.34,-6.34 -3.51,0 -6.35,2.84 -6.35,6.34 0,3.51 2.84,6.35 6.35,6.35 3.5,0 6.34,-2.84 6.34,-6.35z"/>
  <path class="fil3" d="M216.79 465.85c0,5.64 3.69,10.21 8.24,10.21 4.55,0 8.24,-4.57 8.24,-10.21 0,-5.64 -3.69,-10.21 -8.24,-10.21 -4.55,0 -8.24,4.57 -8.24,10.21z"/>
  <path class="fil3" d="M130.71 465.85c0,5.64 3.69,10.21 8.24,10.21 4.54,0 8.23,-4.57 8.23,-10.21 0,-5.64 -3.69,-10.21 -8.23,-10.21 -4.55,0 -8.24,4.57 -8.24,10.21z"/>
  <path class="fil4" d="M137.95 443.75l24.58 0c6.84,0 12.38,-5.55 12.38,-12.38l0 -97.5 15.8 0 0 97.5c0,6.83 5.55,12.38 12.39,12.38l25.33 0c3.72,0 6.73,3.01 6.73,6.73l0 13.49c0,0.83 -0.67,1.51 -1.51,1.51l-6.12 0c-0.83,0 -1.51,-0.68 -1.51,-1.51l0 -5.34c0,-3.72 -3.01,-6.73 -6.73,-6.73l-74.61 0c-3.71,0 -6.73,3.01 -6.73,6.73l0 5.34c0,0.83 -0.67,1.51 -1.5,1.51l-6.13 0c-0.83,0 -1.5,-0.68 -1.5,-1.51l0 -13.49c0,-3.72 3.01,-6.73 6.73,-6.73l2.4 0z"/>
  <path class="fil5" d="M173.79 345.09l19.28 0c1.29,0 2.34,-1.05 2.34,-2.34l0 -6.18c0,-1.3 -1.05,-2.34 -2.34,-2.34l-19.28 0c-1.29,0 -2.33,1.04 -2.33,2.34l0 6.18c0,1.29 1.04,2.34 2.33,2.34z"/>
  <path class="fil6" d="M104.18 322.54l0 9.94c0,2.47 2,4.46 4.47,4.46l137.09 0 -0.13 -14.4 -141.43 0z"/>
  <path class="fil6" d="M73.39 155.74l30.79 166.8 36.4 0c0,0 -10.31,-3.53 -11.76,-26.96 -0.74,-11.83 0.78,-28.74 7.03,-52.83l-1.8 0c-7,0 -12.68,-5.68 -12.68,-12.68l0 -88.35c0,-1.37 0.17,-2.68 0.47,-3.95l-33.48 0c-9.52,0 -16.69,8.62 -14.97,17.97z"/>
  <path class="fil7" d="M87.59 155.74l30.79 166.8 22.2 0c0,0 -10.31,-3.53 -11.76,-26.96 -0.74,-11.83 0.78,-28.74 7.03,-52.83l-1.8 0c-7,0 -12.68,-5.68 -12.68,-12.68l0 -88.35c0,-1.37 0.17,-2.68 0.47,-3.95l-19.28 0c-9.52,0 -16.69,8.62 -14.97,17.97z"/>
  <path class="fil3" d="M135.78 125.27l0 0c0,0 8.62,-29.19 8.62,-60.62 0,-31.44 12.23,-42.17 25.45,-42.17l28.1 0c15.4,0 28.09,12.01 28.99,27.38 0.76,12.84 1.9,27.04 3.54,35 3.49,16.96 10.7,49.66 16.95,66.87 6.25,17.21 1.26,31.92 -13.96,32.17 0,0 1.25,31.19 -40.17,22.71 -39.27,-8.05 -65.75,-19.89 -61.58,-67.27 0.43,-4.91 1.8,-9.69 4.06,-14.07z"/>
  <path class="fil8" d="M212.71 57.93c2.56,0 5.13,-0.43 7.08,-1.72 1.94,-1.28 3.03,-3.25 3.25,-5.86 0.98,-11.77 -8.61,-19.18 -9.02,-19.49 -0.27,-0.21 -0.65,-0.15 -0.85,0.11 -0.2,0.27 -0.15,0.65 0.12,0.85 0.09,0.07 9.47,7.34 8.54,18.42 -0.19,2.26 -1.07,3.88 -2.71,4.96 -5.23,3.45 -16.09,-0.09 -16.2,-0.12 -0.32,-0.11 -0.66,0.06 -0.77,0.38 -0.1,0.32 0.07,0.66 0.39,0.77 0.31,0.1 5.22,1.7 10.17,1.7z"/>
  <path class="fil8" d="M172.03 54.03c0.33,0 0.6,-0.26 0.61,-0.59 0,-0.12 0.39,-11.67 1.43,-15.52 0.09,-0.32 -0.1,-0.65 -0.42,-0.74 -0.33,-0.09 -0.66,0.1 -0.74,0.43 -1.08,3.98 -1.47,15.31 -1.48,15.79 -0.02,0.34 0.25,0.62 0.58,0.63l0.02 0z"/>
  <path class="fil9" d="M125.07 131.28c49.32,26.05 86.06,15.91 98.75,10.84 -1.56,-1.3 -3.22,-2.5 -4.98,-3.55 -7.02,-4.21 -16.72,-10.08 -22.57,-13.91 -4.59,-3 -6.19,-8 -6.58,-12.53 -0.45,-5.27 0.75,-9.89 0.75,-9.89l4.11 0c12,0 21.72,-9.72 21.72,-21.72l0 -27.1 -44.24 0 -6.02 53.28c-1.19,10.5 -10.06,18.42 -20.62,18.42l-7.43 0c-5.21,0 -9.85,2.4 -12.89,6.16z"/>
  <path class="fil10" d="M173.38 274.67c-8.46,4.35 -22.48,23.59 -44.56,20.91 -0.74,-11.83 0.78,-28.73 7.03,-52.83l-1.8 0c-7,0 -12.68,-5.68 -12.68,-12.68l0 -88.36c0,-3.95 1.39,-7.59 3.71,-10.44 49.31,26.06 86.05,15.92 98.74,10.85 3.44,2.86 6.39,6.28 8.7,10.16l30.46 51.2c1.89,3.17 5.29,5.1 8.97,5.1l2.98 0 0 28.71 -8.14 0c-4.62,0 -9.03,-2.02 -12.05,-5.52l-34.23 -39.77c0,0 -8.41,28.87 1.64,74.98l-0.01 0c0,0 -39.01,2.66 -48.76,7.69z"/>
  <path class="fil9" d="M261.15 461.74c0,0 2.18,2.65 5.95,5.9 -2.6,1.47 -5.52,3.78 -7.72,7.4 0,0 -6.94,-7.13 -16.47,-7.7 1.08,-2.99 2.39,-5.83 3.91,-8l-0.2 -23.02 18.08 0 -3.55 25.42z"/>
  <path class="fil4" d="M259.38 475.04c2.2,-3.62 5.12,-5.93 7.72,-7.4 5.23,4.51 13.51,10.16 23.3,11.54 0,0 5.1,-0.41 7.42,3.04 0.79,1.18 0,2.77 -1.39,3.02 -6.66,1.11 -26.77,3.7 -54.15,-0.02 -1.71,-0.24 -2.94,-1.75 -2.79,-3.46 0.3,-3.23 1.49,-9.06 3.42,-14.42 9.53,0.57 16.47,7.7 16.47,7.7z"/>
  <path class="fil11" d="M283.91 301.56c13.89,3.84 5.32,46.69 5.32,46.69l0 0.02c-0.09,0.69 -6.48,50.84 -4.43,54.65 2.06,3.84 5.32,12.42 -4.43,18.92 0,0 4.43,16.26 -11.24,14.48l-4.43 0 0 0 -18.08 0 -1.01 -113.78 -28.03 0c17.21,-7.68 55.65,-23.93 66.33,-20.98z"/>
  <path class="fil12" d="M173.38 274.67c9.75,-5.03 48.76,-7.69 48.76,-7.69l0.01 0 0 0.01c0,0 45.5,-10.06 55.85,0 10.34,10.03 52.01,56.74 55.56,69.73 2.29,8.4 0,13.9 0,13.9 0,0 8.01,3.17 10.35,7.98 5.01,10.32 -4.98,18.28 -5.03,18.32l0 0c0,0 -6.07,1.26 -14.16,11.16l-35.49 -39.83 0 0.02 0 -0.02c0,0 8.57,-42.85 -5.32,-46.69 -10.68,-2.95 -49.12,13.3 -66.33,20.98l-77 0c0,0 -10.31,-3.53 -11.76,-26.96 22.08,2.68 36.1,-16.56 44.56,-20.91z"/>
  <path class="fil9" d="M338.88 376.92l0 0 0 0 13.59 24.53c0,0 2.82,-0.71 7.01,-1.91 -1.57,3.21 -3.07,7.33 -2.28,10.19 0,0 -6.05,-0.79 -12.45,4.01 -0.76,-1.72 -1.54,-3.62 -2.32,-5.79l-17.71 -19.87c8.09,-9.9 14.16,-11.16 14.16,-11.16z"/>
  <path class="fil4" d="M357.2 409.73c-0.79,-2.86 0.71,-6.98 2.28,-10.19 8.41,-2.42 22.38,-6.86 30.21,-11.67 1.05,-0.65 2.41,-0.45 3.2,0.52 0.37,0.45 0.55,1 0.55,1.55 0,0.55 -0.18,1.09 -0.54,1.54 -4.63,5.66 -21.22,25.24 -35.49,32.85 -2.63,1.4 -5.91,0.74 -7.67,-1.68 -1.41,-1.93 -3.15,-4.8 -4.99,-8.91 6.4,-4.8 12.45,-4.01 12.45,-4.01z"/>
  <path class="fil13" d="M177.86 102.24c0,0 5.98,9.95 11.83,9.89 -0.45,-5.27 0.75,-9.89 0.75,-9.89l-12.58 0z"/>
  <path class="fil14" d="M220.51 192.61c0.25,0 0.48,-0.16 0.57,-0.41 0.07,-0.19 6.63,-19.77 -4.33,-38.12 -0.17,-0.29 -0.54,-0.39 -0.83,-0.21 -0.28,0.17 -0.38,0.54 -0.21,0.83 10.66,17.85 4.29,36.92 4.23,37.11 -0.11,0.31 0.06,0.66 0.37,0.77l0.2 0.03z"/>
  <path class="fil14" d="M206.48 225.62c0.3,0 0.56,-0.22 0.6,-0.52 0.05,-0.33 -0.18,-0.64 -0.52,-0.68l-63.28 -8.79 3.81 -63.87c0.02,-0.33 -0.23,-0.62 -0.57,-0.64 -0.33,-0.02 -0.62,0.23 -0.64,0.57l-3.84 64.43c-0.02,0.31 0.21,0.59 0.52,0.63l63.84 8.87 0.08 0z"/>
  <path class="fil14" d="M206.48 243.19c0.21,0 0.4,-0.11 0.51,-0.28l1.35 -2.14c0.18,-0.28 0.09,-0.66 -0.19,-0.84 -0.28,-0.17 -0.66,-0.09 -0.83,0.19l-1.17 1.86 -68.73 -0.18 0 0c-0.34,0 -0.61,0.27 -0.61,0.6 0,0.34 0.27,0.61 0.61,0.61l69.06 0.18 0 0z"/>
  <path class="fil4" d="M197.37 83.28c0,0 5.47,-2.35 6.32,-0.96 0.86,1.39 -2.68,3.11 -7.39,3.11 -4.71,0 -8.35,-2.9 -7.39,-4.5 0.97,-1.61 8.46,2.35 8.46,2.35z"/>
  <path class="fil13" d="M195.89 89.44c1.85,0 3.17,-0.65 3.25,-0.69 0.3,-0.15 0.42,-0.51 0.28,-0.81 -0.15,-0.3 -0.52,-0.42 -0.82,-0.27 -0.02,0.01 -2.58,1.24 -5.37,-0.01 -0.3,-0.14 -0.66,0 -0.8,0.3 -0.14,0.31 0,0.67 0.3,0.8 1.13,0.51 2.22,0.68 3.16,0.68z"/>
  <path class="fil13" d="M198.28 78.37c1.2,0 2.14,-0.52 2.62,-0.97 0.12,-0.11 0.19,-0.27 0.19,-0.44l0 -14.99c0,-3.03 2.85,-3.8 2.88,-3.81 0.33,-0.08 0.52,-0.41 0.44,-0.73 -0.08,-0.32 -0.41,-0.52 -0.74,-0.44 -1.31,0.34 -3.8,1.81 -3.8,4.98l0 14.7c-0.48,0.33 -1.84,1.01 -3.6,-0.2 -0.27,-0.19 -0.65,-0.13 -0.84,0.15 -0.19,0.27 -0.12,0.65 0.15,0.84 0.97,0.67 1.89,0.91 2.7,0.91z"/>
  <path class="fil3" d="M189.53 64.15c1.41,0 2.56,1.15 2.56,2.56 0,1.41 -1.15,2.56 -2.56,2.56 -1.41,0 -2.56,-1.15 -2.56,-2.56 0,-1.41 1.15,-2.56 2.56,-2.56z"/>
  <path class="fil3" d="M209.04 64.15c1.41,0 2.56,1.15 2.56,2.56 0,1.41 -1.15,2.56 -2.56,2.56 -1.41,0 -2.56,-1.15 -2.56,-2.56 0,-1.41 1.15,-2.56 2.56,-2.56z"/>
  <path class="fil13" d="M177.86 72.8c0,2.28 1.85,4.14 4.13,4.14 2.29,0 4.14,-1.86 4.14,-4.14 0,-2.29 -1.85,-4.14 -4.14,-4.14 -2.28,0 -4.13,1.85 -4.13,4.14z"/>
  <path class="fil13" d="M209.03 72.8c0,2.29 1.86,4.13 4.14,4.13 1.24,0 2.35,-0.55 3.1,-1.4l0 -5.47c-0.75,-0.86 -1.86,-1.4 -3.1,-1.4 -2.28,0 -4.14,1.85 -4.14,4.14z"/>
  <path class="fil3" d="M183.13 58.83l0.17 -0.03c7.24,-2.11 10.04,-0.12 10.07,-0.1 0.26,0.2 0.64,0.15 0.84,-0.11 0.2,-0.27 0.16,-0.64 -0.11,-0.85 -0.12,-0.1 -3.23,-2.41 -11.14,-0.1 -0.32,0.09 -0.51,0.43 -0.41,0.75 0.08,0.27 0.32,0.44 0.58,0.44z"/>
  <path class="fil3" d="M214.19 58.83c0.22,0 0.44,-0.13 0.54,-0.34 0.15,-0.3 0.03,-0.66 -0.27,-0.81 -4.03,-2.02 -8.61,-0.6 -8.81,-0.54 -0.32,0.11 -0.49,0.45 -0.39,0.76 0.1,0.32 0.44,0.5 0.76,0.4 0.04,-0.01 4.32,-1.33 7.9,0.46l0.27 0.07z"/>
  <path class="fil4" d="M186.97 37.38c5.48,0 9.93,-4.45 9.93,-9.93 0,-5.47 -4.45,-9.92 -9.93,-9.92 -5.47,0 -9.92,4.45 -9.92,9.92 0,5.48 4.45,9.93 9.92,9.93zm27.38 0c5.47,0 9.92,-4.45 9.92,-9.93 0,-5.47 -4.45,-9.92 -9.92,-9.92 -5.47,0 -9.92,4.45 -9.92,9.92 0,5.48 4.45,9.93 9.92,9.93zm-56.69 -4.32l19.78 -11.32c1.94,-3.24 5.49,-5.42 9.53,-5.42 3.71,0 6.99,1.83 9.02,4.62 5.15,-2.39 8.29,-0.97 9.47,-0.16 2.04,-2.7 5.26,-4.46 8.89,-4.46 6.14,0 11.14,5 11.14,11.13 0,6.14 -5,11.14 -11.14,11.14 -6.14,0 -11.13,-5 -11.13,-11.14 0,-2.07 0.58,-4.01 1.57,-5.67 -0.92,-0.63 -3.58,-1.87 -8.13,0.19 0.92,1.62 1.45,3.49 1.45,5.48 0,6.14 -4.99,11.14 -11.14,11.14 -6.13,0 -11.13,-5 -11.13,-11.14 0,-1.33 0.25,-2.6 0.68,-3.79l-18.26 10.45 -0.3 0.08c-0.21,0 -0.41,-0.11 -0.52,-0.3 -0.17,-0.29 -0.07,-0.66 0.22,-0.83z"/>
  <path class="fil15" d="M75.39 237.99l0.04 -0.01 0 -10.88 -0.04 -0.01c-2.29,0 -4.16,2.45 -4.16,5.45 0,3 1.87,5.45 4.16,5.45zm0 -13.32l0.04 0 0 -4.28c0,-0.56 0.46,-1.01 1.02,-1.01l20.69 0c0.56,0 1.01,0.45 1.01,1.01l0 25.31c0,0.56 -0.45,1.01 -1.01,1.01l-20.69 0c-0.56,0 -1.02,-0.45 -1.02,-1.01l0 -5.29 -0.04 0c-3.63,0 -6.58,-3.53 -6.58,-7.87 0,-4.34 2.95,-7.87 6.58,-7.87z"/>
  <polygon class="fil16" points="90.71,262.52 98.49,262.52 172.17,479.83 164.5,479.83 94.6,273.68 24.7,479.83 17.03,479.83 "/>
  <polygon class="fil16" points="403.29,262.52 476.98,479.83 469.3,479.83 399.4,273.68 329.5,479.83 321.83,479.83 395.51,262.52 "/>
  <polygon class="fil17" points="410.74,202 412.72,200.87 408.64,189.05 406.27,189.05 "/>
  <polygon class="fil18" points="381.62,218.64 383.7,217.45 410.74,202 406.27,189.05 374.39,189.05 "/>
  <path class="fil16" d="M44.17 262.75l405.66 0c1.33,0 2.41,-1.08 2.41,-2.41 0,-1.33 -1.08,-2.41 -2.41,-2.41l-405.66 0c-1.33,0 -2.41,1.08 -2.41,2.41 0,1.33 1.08,2.41 2.41,2.41z"/>
  <path class="fil3" d="M16.35 259.03l461.3 0c1.33,0 2.41,-1.07 2.41,-2.4l0 -7.51c0,-1.33 -1.08,-2.41 -2.41,-2.41l-461.3 0c-1.33,0 -2.41,1.08 -2.41,2.41l0 7.51c0,1.33 1.08,2.4 2.41,2.4z"/>
  <path class="fil9" d="M207.82 225.02c0,0 9.76,-3.23 15.59,-5.12 5.83,-1.89 15.16,1.6 21.86,6.56 0,0 4.66,3.93 3.06,5.24 -1.6,1.32 -9.33,-4.95 -16.03,-5.68 0,0 15.59,9.91 13.99,13.41 -0.53,1.16 -2.47,0.9 -4.82,0.04 0.35,0.64 0.46,1.2 0.13,1.56 -0.83,0.92 -5.33,-0.71 -9.41,-2.46 0.79,0.58 1.31,1.18 1.28,1.73 -0.15,2.19 -12.68,-3.49 -12.68,-3.49 0,0 -8.02,5.24 -13.56,1.89 0,0 -2.18,-9.15 0.59,-13.68z"/>
  <path class="fil7" d="M213.11 240.45l177.55 0c1.46,0 2.64,1.18 2.64,2.65l0 0.97c0,1.46 -1.18,2.64 -2.64,2.64l-177.55 0c-1.46,0 -2.65,-1.18 -2.65,-2.64l0 -0.97c0,-1.47 1.19,-2.65 2.65,-2.65z"/>
  <path class="fil19" d="M265.24 149.7l-18.16 85.96c-0.56,2.64 1.13,4.79 3.76,4.79l139.79 0c2.64,0 5.24,-2.15 5.8,-4.79l18.16 -85.96c0.55,-2.64 -1.14,-4.78 -3.78,-4.78l-139.79 0c-2.63,0 -5.22,2.14 -5.78,4.78z"/>
  <path class="fil20" d="M269.63 149.7l-18.15 85.96c-0.56,2.64 1.12,4.79 3.76,4.79l135.39 0c2.64,0 5.24,-2.15 5.8,-4.79l18.16 -85.96c0.55,-2.64 -1.14,-4.78 -3.78,-4.78l-135.39 0c-2.64,0 -5.23,2.14 -5.79,4.78z"/>
  <path class="fil4" d="M337.4 187.44c2.92,0 5.29,2.37 5.29,5.28 0,2.92 -2.37,5.29 -5.29,5.29 -2.91,0 -5.28,-2.37 -5.28,-5.29 0,-2.91 2.37,-5.28 5.28,-5.28zm0 14.2c4.92,0 8.92,-4 8.92,-8.92 0,-4.91 -4,-8.91 -8.92,-8.91 -4.91,0 -8.91,4 -8.91,8.91 0,4.92 4,8.92 8.91,8.92z"/>
 </g>
</svg>
